<?xml version="1.0" standalone="no"?>
<!DOCTYPE svg PUBLIC "-//W3C//DTD SVG 20010904//EN"
 "http://www.w3.org/TR/2001/REC-SVG-20010904/DTD/svg10.dtd">
<svg version="1.0" xmlns="http://www.w3.org/2000/svg"
 width="1262.000000pt" height="321.000000pt" viewBox="0 0 1262.000000 321.000000"
 preserveAspectRatio="xMidYMid meet">

<g transform="translate(0.000000,321.000000) scale(0.100000,-0.100000)"
fill="#000000" stroke="none">
<path d="M5710 3146 c-14 -7 -58 -16 -98 -20 -75 -6 -123 -23 -105 -35 7 -4
10 -120 9 -331 -1 -340 20 -898 35 -914 9 -10 287 -11 296 -2 3 2 -5 64 -16
138 -11 73 -23 160 -26 193 -3 33 -8 75 -11 93 -6 41 8 47 80 32 72 -15 106
-44 150 -130 46 -91 101 -165 183 -245 l66 -65 107 0 c135 0 146 8 96 71 -19
24 -74 107 -121 184 -47 77 -102 160 -120 185 -61 80 -62 72 15 129 174 127
206 287 102 512 -64 140 -113 167 -337 189 -55 6 -118 14 -140 20 -56 13 -135
12 -165 -4z m136 -27 c3 -6 0 -15 -7 -20 -19 -12 3 -12 35 1 20 7 26 6 26 -4
0 -18 -66 -76 -85 -76 -8 0 -15 -4 -15 -10 0 -11 27 -2 99 35 47 23 70 42 37
29 -23 -9 -28 14 -5 26 26 15 61 4 39 -11 -15 -10 -6 -9 50 7 35 10 22 -15
-26 -49 -26 -17 -54 -37 -63 -44 -37 -27 2 -22 63 9 36 17 61 35 55 38 -6 4
-3 16 9 30 19 24 48 20 38 -5 -9 -24 17 -35 44 -20 30 17 50 18 70 5 13 -9 12
-13 -5 -26 -20 -16 -20 -16 3 -9 15 4 22 2 22 -8 0 -9 8 -13 23 -10 26 5 53
-19 42 -37 -4 -6 -17 -15 -29 -20 -19 -8 -19 -9 8 -9 24 -1 27 -3 16 -16 -11
-13 -10 -14 4 -9 9 3 23 1 31 -6 18 -15 11 -46 -18 -77 -22 -25 -17 -29 14
-12 15 7 24 7 35 -2 23 -19 17 -37 -28 -80 -43 -40 -43 -40 -8 -20 19 12 38
21 43 21 9 0 9 -102 -1 -116 -7 -11 -101 -38 -108 -31 -3 2 16 15 41 28 66 35
69 59 6 42 -23 -6 -23 -7 -5 -14 16 -6 11 -11 -29 -29 -48 -21 -76 -19 -47 3
20 16 19 40 -3 49 -23 10 -19 37 8 52 11 6 22 12 24 14 10 5 -34 29 -46 25
-22 -9 -15 45 7 59 11 7 20 20 20 28 0 9 6 22 13 29 6 8 -3 3 -21 -10 -30 -21
-33 -22 -49 -6 -12 12 -14 19 -5 29 9 11 5 13 -24 10 -29 -4 -33 -2 -28 13 6
15 4 16 -14 6 -28 -15 -55 -3 -48 21 5 20 0 20 -168 16 l-173 -3 -56 -38 c-54
-35 -83 -46 -75 -29 13 31 80 103 117 126 26 16 40 31 33 33 -6 3 -9 9 -6 15
24 38 -90 -63 -130 -115 -16 -21 -32 -37 -37 -37 -15 0 -10 44 10 83 18 35 18
37 0 58 -22 26 -15 46 19 52 23 5 76 3 92 -2 3 -1 -8 -13 -25 -26 -28 -23 -28
-24 -6 -22 13 1 34 14 46 29 20 24 26 26 37 14 11 -11 17 -10 41 10 30 26 61
31 73 13z m143 -202 c29 -7 59 -21 66 -30 7 -9 21 -17 32 -17 11 0 28 -9 38
-20 23 -25 45 -119 45 -192 0 -46 -4 -61 -22 -78 -56 -52 -239 -66 -323 -25
-44 22 -41 8 -63 248 -7 80 -20 102 -33 55 -4 -15 -18 -38 -31 -50 -13 -13
-16 -17 -6 -9 10 8 21 12 24 8 3 -3 8 -39 9 -79 2 -40 6 -80 9 -88 13 -43 13
-99 -1 -113 -25 -25 -6 -39 28 -22 35 19 95 8 93 -18 -1 -12 6 -14 35 -10 83
12 222 43 256 57 54 23 64 19 30 -10 -45 -38 -84 -56 -105 -49 -14 4 -20 2
-20 -9 0 -9 -28 -30 -68 -50 -38 -19 -74 -41 -81 -50 -12 -14 -10 -16 17 -16
25 0 30 -3 25 -16 -5 -14 -18 -16 -89 -10 -67 6 -89 4 -114 -9 -18 -9 -38 -14
-47 -11 -15 6 -66 -16 -95 -42 -16 -14 -18 -13 -18 6 0 12 9 26 20 32 11 6 18
15 14 21 -7 12 22 59 37 59 7 0 9 -10 5 -24 -6 -23 -4 -24 27 -16 101 26 118
32 114 36 -3 3 -22 1 -44 -5 -49 -14 -83 -14 -83 0 0 6 10 25 22 42 26 36 11
29 -58 -30 -28 -24 -56 -43 -63 -43 -7 0 -11 23 -11 64 l0 63 48 29 c26 17 62
36 80 43 18 8 31 16 28 18 -2 2 -34 -9 -70 -26 -69 -31 -77 -31 -48 3 17 19
17 19 -8 3 -32 -22 -39 -21 -33 3 3 12 37 39 82 66 42 25 65 42 51 38 -13 -4
-36 -15 -50 -24 -14 -10 -40 -21 -57 -24 -31 -5 -33 -4 -33 22 0 16 5 33 11
39 8 8 8 17 0 31 -13 24 -15 82 -3 82 5 0 24 19 42 43 l34 42 -38 -33 c-39
-34 -61 -32 -54 4 4 24 105 75 136 68 12 -2 32 1 43 7 52 27 184 35 268 16z
m346 -349 c-17 -56 -142 -141 -228 -155 -23 -3 -36 -10 -34 -18 6 -15 -79 -69
-98 -61 -21 8 -18 27 5 33 11 3 20 9 20 14 0 5 12 9 26 9 21 0 24 3 15 14 -12
14 8 31 124 99 163 95 181 102 170 65z m-195 -188 c0 -13 -48 -32 -61 -24 -13
8 20 33 44 34 9 0 17 -5 17 -10z m17 -57 c2 -6 -2 -13 -9 -16 -7 -2 -3 -2 10
0 12 2 22 -1 22 -6 0 -6 23 -31 50 -57 35 -33 47 -51 40 -58 -15 -15 -12 -39
5 -32 9 3 19 -3 25 -14 6 -11 8 -20 4 -20 -3 0 -1 -6 5 -13 6 -8 8 -17 4 -20
-3 -4 1 -7 9 -7 30 0 29 -29 -2 -45 -17 -9 -36 -31 -44 -50 -10 -23 -22 -35
-35 -35 -23 0 -41 22 -23 28 7 2 12 11 12 20 0 9 12 29 28 45 l27 30 -28 -18
c-15 -9 -36 -29 -47 -44 l-20 -26 -21 25 c-21 24 -21 24 -1 41 12 9 17 21 13
28 -6 9 -11 8 -21 -4 -21 -26 -37 -17 -68 38 -39 67 -42 83 -18 79 10 -2 30 0
45 4 l26 7 -29 8 c-18 5 -37 4 -49 -3 -16 -8 -23 -7 -34 8 -19 26 -12 48 17
52 14 2 32 5 40 8 13 4 13 6 0 15 -13 8 -11 12 10 29 27 21 51 23 57 3z m-97
-18 c-17 -18 -27 -22 -34 -14 -12 12 17 39 43 39 10 0 8 -7 -9 -25z m-287 -44
c10 -52 4 -71 -22 -71 -14 0 -19 -5 -15 -15 4 -8 0 -23 -7 -33 -7 -9 -1 -6 14
7 15 14 29 23 31 20 12 -14 13 -69 2 -85 -12 -16 -12 -20 2 -30 21 -15 9 -46
-15 -38 -15 5 -16 4 -3 -5 13 -10 13 -12 0 -20 -39 -24 -52 -41 -16 -21 27 15
42 18 49 11 8 -8 8 -14 0 -22 -8 -8 -6 -19 6 -40 23 -42 6 -50 -114 -47 l-100
3 -3 67 -3 68 58 27 c54 25 56 27 30 31 -17 2 -36 -3 -46 -12 -24 -21 -38 -20
-46 4 -10 32 4 61 38 75 28 12 29 14 9 15 -20 0 -21 3 -12 20 9 17 8 20 -10
20 -13 0 -20 5 -18 12 6 16 160 109 173 105 5 -2 13 -23 18 -46z m600 -245 c3
-8 4 -22 2 -32 -2 -11 -4 -22 -4 -26 -1 -3 -17 -16 -36 -28 -26 -16 -43 -20
-63 -15 -27 7 -27 7 -6 24 11 9 19 21 18 26 -3 10 62 65 77 65 4 0 9 -6 12
-14z m66 -90 c17 -20 -12 -39 -61 -40 -55 -1 -59 19 -6 37 55 20 53 20 67 3z"/>
<path d="M6079 3023 c-13 -16 -12 -17 4 -4 9 7 17 15 17 17 0 8 -8 3 -21 -13z"/>
<path d="M6215 2930 c-3 -6 1 -7 9 -4 18 7 21 14 7 14 -6 0 -13 -4 -16 -10z"/>
<path d="M5655 2830 c-3 -6 1 -7 9 -4 18 7 21 14 7 14 -6 0 -13 -4 -16 -10z"/>
<path d="M5632 2708 c-23 -11 -41 -23 -38 -25 5 -5 86 35 86 42 0 7 1 7 -48
-17z"/>
<path d="M5775 2490 c-3 -6 1 -7 9 -4 18 7 21 14 7 14 -6 0 -13 -4 -16 -10z"/>
<path d="M5625 2445 c-16 -13 -26 -24 -21 -25 10 0 76 39 76 46 0 12 -28 1
-55 -21z"/>
<path d="M5895 2424 c-49 -24 -81 -42 -70 -38 106 32 216 83 180 83 -11 0 -60
-20 -110 -45z"/>
<path d="M6151 2157 c-34 -17 -41 -41 -10 -32 30 9 42 20 38 34 -3 7 -12 6
-28 -2z"/>
<path d="M5699 2253 c-13 -15 -12 -15 9 -4 23 12 28 21 13 21 -5 0 -15 -7 -22
-17z"/>
<path d="M5665 2000 c-34 -23 -52 -40 -42 -40 30 0 94 38 100 60 3 11 4 20 4
20 -1 0 -29 -18 -62 -40z"/>
<path d="M5666 1927 c-16 -12 -17 -15 -3 -20 8 -3 28 -2 44 3 23 7 24 8 6 9
-12 1 -23 6 -25 11 -2 7 -10 6 -22 -3z"/>
<path d="M7670 3140 c0 -5 17 -10 38 -10 74 -1 82 -13 87 -130 3 -58 6 -112 7
-120 1 -8 -2 -25 -6 -37 -5 -17 -3 -23 7 -23 10 0 19 -17 26 -50 17 -78 14
-108 -9 -115 -25 -8 -27 -25 -2 -18 16 4 20 -6 32 -80 7 -47 10 -92 7 -100 -3
-8 0 -20 6 -26 7 -7 12 -41 12 -76 0 -43 4 -66 13 -70 18 -7 15 -39 -8 -67
l-19 -25 22 4 c17 3 26 -2 35 -22 11 -24 10 -27 -18 -37 -37 -12 -34 -34 3
-30 32 4 49 -34 23 -53 -22 -16 -20 -24 3 -18 16 4 22 -3 30 -34 19 -68 15
-80 -26 -87 -21 -3 -68 -6 -105 -6 -56 0 -69 3 -78 19 -17 32 -12 69 9 76 24
7 17 35 -9 35 -17 0 -34 33 -22 44 3 3 16 6 30 6 18 0 23 4 18 16 -4 10 1 22
11 31 13 10 8 9 -15 -2 -19 -9 -35 -15 -37 -13 -2 2 -5 17 -7 33 -3 29 -1 30
42 35 l45 5 -44 7 c-24 4 -47 12 -51 19 -15 23 -22 121 -11 132 16 16 14 37
-3 37 -20 0 -31 19 -18 32 11 11 5 39 -10 48 -13 10 -22 70 -9 70 6 0 11 7 11
15 0 8 -3 14 -7 14 -35 -6 -41 10 -21 53 8 16 36 37 76 57 61 30 73 51 29 51
-16 0 -18 -3 -8 -9 9 -6 -4 -17 -48 -40 -71 -36 -71 -36 -71 -16 0 9 15 25 34
36 19 11 36 28 39 38 4 15 -6 12 -54 -16 -33 -20 -62 -40 -65 -44 -3 -5 -20
-9 -37 -10 -30 0 -31 -1 -9 -11 28 -14 28 -23 -1 -62 -13 -17 -24 -44 -25 -59
-3 -45 -49 -116 -76 -117 -6 -1 -24 -12 -41 -26 -16 -13 -22 -22 -12 -18 9 3
17 1 17 -5 0 -20 -42 -116 -60 -136 -24 -27 -43 -65 -36 -73 13 -12 59 47 93
118 20 41 56 100 79 130 24 30 57 92 75 138 18 45 36 82 41 82 5 0 13 -12 19
-27 18 -46 66 -331 73 -433 10 -140 26 -242 41 -266 11 -17 27 -22 87 -28 40
-3 98 -9 129 -12 55 -6 56 -6 61 20 6 31 -38 266 -58 314 -8 18 -14 46 -14 61
0 26 -11 92 -41 238 -6 29 -17 110 -25 180 -8 70 -18 148 -23 173 -27 134 -32
180 -27 231 5 53 4 57 -17 63 -36 10 -127 7 -127 -4z"/>
<path d="M6855 3133 c-51 -11 -44 -18 25 -23 l74 -5 43 -75 c24 -41 46 -92 49
-113 4 -20 11 -40 15 -43 21 -13 5 -32 -38 -45 -25 -8 -48 -20 -51 -27 -3 -10
6 -9 34 4 68 29 78 29 109 -8 l28 -33 -49 -5 c-71 -7 -97 -30 -109 -93 -7 -39
-16 -54 -32 -62 -28 -12 -30 -25 -3 -25 22 0 26 -20 8 -38 -9 -9 -9 -12 0 -12
19 0 14 -132 -9 -240 -11 -52 -25 -126 -31 -165 -5 -38 -16 -83 -23 -100 -18
-40 -29 -84 -30 -115 0 -24 -3 -25 -72 -28 -74 -3 -91 6 -50 26 l22 11 -24 0
c-13 1 -37 -11 -54 -25 -31 -26 -31 -26 -40 -5 -7 14 -5 27 6 44 11 17 12 28
6 34 -7 7 -5 30 6 71 13 44 23 63 41 71 32 14 31 33 -1 25 -32 -8 -34 18 -3
40 18 13 19 16 5 16 -13 0 -17 8 -17 33 0 38 25 67 58 67 11 0 24 5 28 11 5 8
-6 9 -35 4 l-41 -7 0 36 c0 20 5 36 11 36 6 0 8 7 5 17 -4 9 -2 31 5 50 8 24
16 33 33 33 39 0 89 21 77 33 -6 6 -23 4 -51 -7 -22 -9 -43 -16 -45 -16 -8 0
7 173 18 200 5 14 10 43 12 65 1 22 2 52 3 67 1 15 13 39 27 53 24 24 25 25 5
25 -11 0 -20 4 -20 9 0 13 27 39 48 45 9 3 22 18 29 32 11 23 10 25 -5 19 -42
-18 -52 -17 -52 2 0 10 7 29 16 41 8 12 10 22 5 22 -6 0 -11 10 -12 23 -2 48
-28 -42 -44 -150 -9 -59 -25 -152 -36 -206 -10 -54 -19 -122 -19 -150 0 -29
-9 -106 -20 -172 -11 -66 -20 -139 -20 -161 0 -23 -11 -95 -24 -160 -13 -66
-24 -130 -25 -144 0 -14 -3 -40 -7 -57 l-6 -33 134 0 c144 0 158 4 158 50 0
14 7 57 16 95 8 39 19 103 24 144 5 41 21 115 36 164 23 79 26 102 21 176 -6
91 1 161 18 164 11 2 19 -13 98 -183 80 -174 138 -280 153 -280 23 0 27 21 7
35 -22 16 -49 74 -58 126 -3 21 -12 42 -20 49 -20 17 -19 40 3 40 10 0 4 7
-16 17 -19 9 -37 23 -40 31 -3 9 -14 24 -24 34 -23 23 -23 33 0 56 23 24 26
56 4 47 -33 -14 -47 -10 -50 14 -2 15 3 28 12 33 28 16 17 27 -21 25 -32 -2
-38 1 -41 19 -3 19 3 22 53 27 70 7 109 -5 102 -33 -3 -10 0 -21 7 -23 8 -3 8
-8 -1 -18 -10 -12 -7 -15 14 -14 34 0 41 -22 11 -34 -21 -9 -20 -10 11 -10 19
-1 32 -4 28 -7 -8 -8 25 -44 40 -44 16 0 17 -12 1 -29 -9 -9 -3 -8 18 3 18 9
34 26 38 41 5 19 13 25 34 25 18 0 23 3 14 9 -22 13 11 81 39 81 16 0 19 3 11
13 -12 14 9 82 46 155 18 33 28 42 49 42 25 0 25 1 9 13 -17 12 -17 16 -3 43
9 17 22 36 30 42 8 7 12 22 9 37 -5 30 13 55 42 55 20 1 20 2 4 14 -10 7 -18
22 -18 32 0 23 -46 -53 -66 -111 -8 -22 -25 -56 -38 -75 -12 -19 -44 -82 -70
-140 -26 -58 -58 -122 -72 -143 -22 -34 -29 -38 -62 -35 -34 3 -40 8 -68 61
-16 31 -48 75 -70 97 -22 21 -52 67 -68 102 -15 35 -48 105 -73 156 -43 86
-48 92 -77 92 -17 0 -40 2 -51 4 -11 2 -29 2 -40 -1z"/>
<path d="M370 3118 c-19 -4 -73 -10 -120 -13 -74 -4 -87 -8 -110 -30 -23 -24
-24 -27 -7 -36 20 -12 23 -69 6 -102 -14 -24 -22 -315 -22 -759 0 -230 2 -290
14 -304 11 -14 25 -15 79 -10 77 8 77 8 116 0 29 -5 32 -3 43 27 6 18 9 46 6
63 -3 17 1 66 8 110 8 43 12 87 10 97 -3 10 -2 34 1 52 l6 34 148 6 c149 6
270 26 329 54 61 29 113 112 167 266 30 86 30 88 -3 242 -20 91 -25 103 -64
143 -46 47 -136 101 -210 126 -91 30 -327 51 -397 34z m269 -31 c19 -7 36 -17
38 -22 3 -11 -167 -99 -174 -91 -2 2 7 20 21 41 40 58 21 64 -65 20 -47 -25
-53 -14 -16 28 33 35 37 37 98 36 35 0 79 -5 98 -12z m-239 -7 c0 -5 -10 -14
-22 -21 -19 -10 -19 -12 -5 -21 34 -18 19 -46 -40 -78 -32 -17 -48 -28 -37
-25 28 7 42 -24 20 -41 -22 -16 -21 -38 2 -29 32 13 47 10 47 -10 0 -14 -8
-21 -25 -23 -42 -5 -68 -22 -63 -42 5 -18 6 -18 36 1 41 24 53 24 60 -2 4 -16
-1 -23 -24 -31 -25 -8 -27 -12 -15 -24 8 -8 22 -11 31 -8 14 6 15 -6 13 -102
l-3 -109 -48 -35 c-45 -34 -51 -58 -5 -26 12 9 32 16 43 16 19 -1 19 -2 -4
-20 -23 -20 -23 -20 -2 -20 14 0 20 -4 15 -11 -3 -6 5 -5 22 3 34 15 117 17
124 3 3 -5 -19 -18 -49 -28 -31 -10 -75 -36 -104 -62 -59 -52 -156 -105 -176
-97 -11 3 0 18 35 48 62 55 54 56 -17 3 l-54 -40 -3 52 c-4 61 12 82 74 104
42 14 57 35 25 35 -13 0 -21 6 -21 16 0 14 -2 14 -16 3 -9 -7 -20 -23 -25 -36
-5 -13 -13 -23 -18 -23 -15 0 -19 23 -14 72 5 46 6 46 49 53 39 5 42 8 29 21
-12 13 -18 13 -49 0 -41 -17 -55 -7 -26 19 10 9 16 23 13 31 -3 8 -1 14 3 14
5 1 23 12 39 27 21 18 23 21 5 9 -37 -24 -50 -29 -58 -22 -10 11 -11 199 0
219 5 9 16 17 26 18 12 0 13 2 3 6 -11 5 -11 7 0 14 11 7 10 9 -5 9 -12 0 -16
5 -13 15 4 8 9 48 13 90 6 66 9 75 27 75 15 0 18 -5 15 -25 -3 -14 -1 -25 3
-25 5 0 9 5 9 10 0 6 7 10 15 10 9 0 21 11 27 25 10 22 17 25 65 25 29 0 53
-4 53 -10z m-130 -15 c0 -8 -7 -15 -15 -15 -8 0 -15 7 -15 15 0 8 7 15 15 15
8 0 15 -7 15 -15z m524 -26 c62 -23 77 -37 52 -51 -9 -5 -16 -13 -16 -18 0
-13 37 -13 45 0 3 6 19 10 35 10 53 0 112 -107 91 -163 -7 -19 -6 -27 3 -30 8
-3 19 -28 26 -56 10 -43 9 -62 -5 -120 -15 -63 -19 -69 -53 -84 -46 -19 -162
-33 -162 -19 0 6 17 16 38 23 43 14 152 67 152 74 0 11 -88 -9 -139 -32 -56
-24 -81 -22 -46 3 53 39 61 46 33 30 -36 -21 -40 -20 -36 5 3 24 86 61 128 57
27 -2 50 8 50 23 0 14 -31 10 -76 -10 -23 -10 -54 -22 -70 -25 -25 -5 -31 -2
-41 21 -9 18 -9 30 -2 39 5 6 8 16 7 21 -2 5 11 22 27 37 l30 28 -37 -26 c-52
-37 -69 -35 -64 9 3 26 1 35 -10 35 -12 0 -12 4 -4 20 9 16 8 20 -7 20 -13 0
-8 8 17 31 l35 31 -32 -22 c-18 -11 -35 -25 -38 -30 -11 -18 -25 -11 -37 18
-6 15 -10 31 -10 35 1 4 -11 1 -27 -8 -40 -20 -44 -19 -37 10 4 15 2 25 -5 25
-6 0 -9 4 -7 8 6 17 109 102 123 102 8 0 39 -9 69 -21z m-320 -66 c-30 -39
-41 -47 -63 -45 -36 5 -47 18 -31 37 18 22 124 75 128 65 2 -5 -13 -30 -34
-57z m126 12 c0 -21 -70 -65 -102 -65 -16 0 -28 4 -28 8 0 6 109 67 128 71 1
1 2 -6 2 -14z m7 -107 c67 -25 103 -54 103 -83 0 -13 11 -40 24 -59 16 -24 25
-56 30 -105 8 -82 -1 -107 -48 -126 -38 -16 -234 -55 -277 -55 l-29 0 1 148
c1 81 -1 179 -6 219 -8 80 -14 71 60 86 29 7 83 -3 142 -25z m373 -398 c0 -13
-12 -26 -35 -37 -19 -9 -32 -20 -29 -25 3 -5 0 -16 -8 -25 -9 -12 -9 -15 0 -9
22 13 12 -10 -16 -37 -15 -15 -38 -27 -51 -27 -28 0 -19 15 23 41 17 10 27 19
21 19 -15 0 -61 -32 -82 -58 -15 -19 -34 -25 -98 -33 -44 -5 -94 -13 -110 -18
-38 -10 -79 4 -72 23 4 9 -1 16 -13 18 -16 3 -13 11 26 63 51 68 71 81 134 90
48 7 66 4 63 -7 -4 -11 -1 -10 40 7 20 8 46 15 58 15 19 0 17 -4 -16 -30 -21
-16 -36 -30 -33 -30 2 0 40 18 84 40 91 45 114 49 114 20z m-480 -115 c0 -3
-9 -23 -19 -44 -17 -32 -27 -39 -58 -44 -21 -3 -48 -9 -60 -13 -17 -5 -23 -2
-23 10 0 9 3 16 8 16 4 0 31 18 61 40 46 35 91 52 91 35z m-204 -150 c-5 -13
-1 -13 25 1 22 11 34 13 42 5 13 -13 14 -12 -58 -49 -45 -23 -54 -31 -36 -32
24 0 24 0 5 -22 -16 -18 -13 -17 21 5 48 32 65 34 65 7 0 -15 -13 -27 -42 -40
-24 -11 -35 -20 -25 -20 24 0 21 -11 -10 -37 -38 -30 -25 -29 17 2 42 31 50
31 50 1 0 -35 -22 -53 -74 -60 -25 -4 -48 -11 -51 -17 -4 -5 -14 -9 -23 -9
-13 0 -12 5 8 21 l25 20 -32 -15 c-44 -22 -51 -20 -47 11 3 28 27 53 51 53 7
0 13 7 13 16 0 9 8 23 18 31 22 19 -4 6 -42 -20 -22 -16 -30 -17 -36 -7 -13
21 -2 35 40 56 29 14 37 23 31 33 -7 11 -13 11 -32 -3 -33 -23 -49 -20 -49 9
0 15 5 25 13 24 6 -1 37 10 67 24 63 31 74 33 66 12z m42 -282 c-3 -24 -9 -29
-47 -35 -24 -4 -49 -12 -56 -18 -13 -10 -75 14 -75 29 0 11 118 49 153 50 25
1 28 -2 25 -26z"/>
<path d="M305 3009 c-16 -10 -26 -19 -22 -19 11 0 67 29 67 35 0 9 -15 4 -45
-16z"/>
<path d="M190 2810 c-9 -6 -10 -10 -3 -10 6 0 15 5 18 10 8 12 4 12 -15 0z"/>
<path d="M228 2754 c-38 -20 -36 -39 1 -19 30 15 49 35 34 35 -4 -1 -20 -8
-35 -16z"/>
<path d="M294 2694 c-18 -14 -18 -15 4 -4 12 6 22 13 22 15 0 8 -5 6 -26 -11z"/>
<path d="M315 2629 c-4 -6 -5 -12 -2 -15 7 -7 37 7 37 17 0 13 -27 11 -35 -2z"/>
<path d="M330 2561 c-19 -8 -22 -51 -3 -44 17 7 36 40 26 46 -5 3 -15 2 -23
-2z"/>
<path d="M245 2480 c-3 -5 -2 -10 4 -10 5 0 13 5 16 10 3 6 2 10 -4 10 -5 0
-13 -4 -16 -10z"/>
<path d="M285 2359 c-4 -6 -5 -12 -2 -15 2 -3 7 2 10 11 7 17 1 20 -8 4z"/>
<path d="M710 2994 c-25 -15 -25 -15 -1 -8 17 4 21 3 16 -6 -5 -8 -3 -11 6 -8
15 5 26 38 12 38 -4 -1 -19 -7 -33 -16z"/>
<path d="M655 2970 c-3 -6 1 -7 9 -4 18 7 21 14 7 14 -6 0 -13 -4 -16 -10z"/>
<path d="M760 2950 c-45 -24 -28 -24 25 0 22 10 33 19 25 19 -8 0 -31 -8 -50
-19z"/>
<path d="M862 2921 c-10 -6 -10 -10 1 -20 11 -9 19 -7 38 9 l24 19 -25 1 c-14
0 -31 -4 -38 -9z"/>
<path d="M680 2419 c-17 -13 -18 -17 -5 -10 33 17 51 31 40 31 -5 0 -21 -10
-35 -21z"/>
<path d="M721 2395 c-18 -19 -36 -33 -41 -30 -4 3 -13 -2 -19 -9 -22 -26 8
-29 56 -4 37 18 47 29 49 51 3 36 -5 34 -45 -8z"/>
<path d="M805 2400 c-3 -5 3 -10 15 -10 12 0 18 5 15 10 -3 6 -10 10 -15 10
-5 0 -12 -4 -15 -10z"/>
<path d="M595 2364 l-30 -25 32 15 c17 9 35 20 38 26 11 18 -10 10 -40 -16z"/>
<path d="M1480 3119 c-25 -4 -83 -11 -130 -14 -47 -4 -91 -12 -98 -19 -15 -14
-16 -70 -13 -771 1 -242 6 -446 11 -454 7 -13 22 -13 96 -3 48 6 91 9 97 5 5
-3 127 -7 270 -9 256 -4 324 2 344 29 6 7 8 52 5 105 l-4 92 -107 0 c-58 0
-172 -5 -252 -11 -80 -7 -157 -9 -172 -5 -37 9 -49 60 -45 196 l3 109 208 -2
c246 -2 242 -4 232 98 -3 33 -6 79 -7 103 l-1 42 -198 0 -199 0 0 124 c0 116
1 125 20 131 11 4 34 4 50 0 16 -3 55 0 87 8 44 12 76 13 133 7 41 -5 110 -9
152 -10 l77 0 -5 83 c-10 169 -9 164 -61 171 -65 9 -439 5 -493 -5z m500 -24
c8 -10 10 -29 6 -55 -4 -29 -3 -40 6 -40 8 -1 6 -6 -4 -14 -22 -16 -23 -26 -2
-26 11 0 14 -8 12 -27 -3 -27 -6 -28 -60 -31 -58 -3 -74 8 -41 27 10 5 15 12
12 15 -3 3 -21 -5 -40 -18 -29 -20 -43 -23 -84 -19 -28 3 -55 10 -62 15 -7 6
-19 5 -32 -1 -25 -14 -61 -14 -61 -1 0 15 -41 12 -60 -5 -10 -9 -25 -13 -34
-9 -18 7 -21 20 -6 29 19 12 -1 25 -21 15 -11 -6 -17 -15 -14 -20 5 -8 -34
-40 -65 -54 -8 -3 -1 -5 17 -3 19 2 34 -2 37 -9 5 -13 -12 -34 -29 -34 -6 0
-20 -7 -31 -15 -17 -13 -16 -14 15 -5 19 5 38 7 42 4 5 -3 9 -29 9 -59 0 -59
-16 -85 -53 -85 -16 0 -18 -3 -9 -12 9 -9 15 -9 24 0 21 21 30 13 26 -22 -3
-27 0 -36 14 -39 10 -3 18 -12 18 -21 0 -18 15 -21 25 -6 3 6 20 10 37 10 29
0 30 -1 24 -36 -6 -30 -5 -35 10 -32 10 1 16 7 15 11 -5 14 51 67 71 67 19 0
26 -34 8 -45 -5 -3 -10 -11 -10 -16 0 -12 61 28 73 48 5 8 30 13 72 13 l65 0
0 -32 c0 -17 -7 -40 -17 -50 -15 -17 -15 -18 0 -18 25 0 22 -55 -4 -81 -21
-21 -26 -21 -219 -14 l-199 7 -3 -32 c-3 -33 -9 -39 -58 -58 -22 -8 -21 -9 15
-8 l40 1 -1 -52 c-2 -74 -11 -103 -32 -103 -10 0 -26 -6 -36 -13 -18 -13 -18
-14 -1 -21 10 -4 23 -2 29 4 5 5 14 10 18 10 13 0 9 -37 -6 -49 -8 -6 -16 -20
-19 -31 -5 -18 -3 -19 16 -5 26 18 55 1 36 -21 -14 -17 -8 -18 25 -3 14 7 32
9 42 5 15 -6 15 -8 -2 -28 l-19 -21 33 17 c18 9 37 14 43 11 5 -4 15 -2 22 4
7 5 25 15 41 21 23 9 27 8 23 -4 -3 -8 0 -19 7 -25 9 -8 22 -3 47 19 19 16 46
29 62 30 33 0 35 -13 5 -29 l-23 -12 22 5 c35 6 35 -8 3 -39 -31 -30 -45 -90
-15 -65 8 7 12 17 9 22 -7 11 54 78 70 78 5 0 20 9 32 21 19 18 141 46 152 34
11 -11 -15 -50 -50 -76 -56 -40 -78 -38 -43 3 46 54 -14 51 -75 -4 -27 -24
-29 -28 -8 -15 54 33 65 13 19 -34 -40 -39 -24 -37 63 11 40 22 76 37 79 33
14 -13 6 -61 -13 -78 -27 -24 -178 -42 -230 -26 -20 6 -92 11 -159 11 -145 0
-206 12 -215 43 -6 22 -7 22 -21 -4 -17 -32 -93 -59 -106 -37 -14 21 -10 41 6
34 8 -3 15 -1 15 4 0 6 -7 10 -15 10 -23 0 -18 31 11 61 25 27 26 27 5 34 -22
7 -28 29 -10 41 8 4 8 9 0 17 -6 6 -11 28 -11 49 0 32 5 40 30 53 17 9 30 20
30 26 0 6 -8 6 -21 -1 -11 -7 -22 -10 -24 -8 -1 2 -6 44 -9 93 l-6 90 50 34
c27 18 50 38 50 43 0 10 -10 5 -53 -26 -20 -14 -30 -17 -38 -9 -16 16 -5 28
41 43 27 9 45 23 55 43 22 43 20 43 -31 -2 -73 -64 -102 -49 -43 22 31 38 30
50 -3 20 -17 -15 -18 -15 -18 4 0 11 9 28 20 38 11 10 20 25 20 33 0 13 -3 13
-18 -1 -10 -10 -22 -17 -25 -17 -16 0 -5 33 18 55 l24 25 -24 0 c-22 0 -25 4
-25 39 0 29 6 44 21 54 14 11 17 17 9 22 -7 4 -16 2 -20 -5 -14 -23 -30 1 -30
45 0 25 6 50 15 59 8 8 15 17 15 20 0 3 -7 6 -15 6 -18 0 -20 41 -4 57 8 8 7
16 -2 30 -7 11 -9 27 -6 36 8 21 65 31 101 17 28 -10 28 -11 10 -24 -10 -8
-15 -18 -11 -22 4 -5 21 6 38 24 24 25 38 32 68 32 21 0 67 3 102 6 l64 7 -18
-21 c-31 -34 -9 -46 23 -12 23 25 36 30 75 30 31 0 44 -4 39 -11 -4 -8 1 -9
16 -4 79 25 193 31 210 10z"/>
<path d="M1838 3053 c7 -3 16 -2 19 1 4 3 -2 6 -13 5 -11 0 -14 -3 -6 -6z"/>
<path d="M1669 3018 c-12 -23 -12 -23 10 -4 23 21 26 26 11 26 -5 0 -15 -10
-21 -22z"/>
<path d="M1761 3006 c-19 -10 -20 -14 -8 -19 9 -3 21 1 28 9 17 20 8 25 -20
10z"/>
<path d="M1610 2970 c0 -11 2 -20 4 -20 2 0 6 9 9 20 3 11 1 20 -4 20 -5 0 -9
-9 -9 -20z"/>
<path d="M1403 2933 c-25 -5 -47 -27 -41 -43 2 -6 19 3 38 19 19 17 33 30 30
29 -3 0 -15 -3 -27 -5z"/>
<path d="M1328 2774 c-26 -13 -38 -34 -20 -34 10 1 56 40 51 44 -2 2 -16 -2
-31 -10z"/>
<path d="M1421 2730 c-13 -11 -19 -20 -13 -20 5 0 20 9 33 20 13 10 20 19 14
19 -5 0 -21 -9 -34 -19z"/>
<path d="M1445 2547 c-11 -9 -14 -16 -7 -21 15 -9 42 4 42 20 0 18 -11 18 -35
1z"/>
<path d="M1818 2543 c-19 -5 -25 -33 -7 -33 17 0 49 20 49 30 0 10 -12 11 -42
3z"/>
<path d="M1838 2483 c7 -3 16 -2 19 1 4 3 -2 6 -13 5 -11 0 -14 -3 -6 -6z"/>
<path d="M1460 2450 c-53 -35 -49 -37 15 -10 25 11 43 24 40 30 -3 5 -7 10 -8
9 -1 0 -22 -13 -47 -29z"/>
<path d="M1714 2449 l-29 -31 24 4 c17 2 27 12 32 31 4 15 6 27 5 27 -1 0 -15
-14 -32 -31z"/>
<path d="M1596 2454 c-3 -8 1 -14 9 -14 20 0 28 17 11 23 -8 3 -17 -1 -20 -9z"/>
<path d="M1383 2378 c-24 -11 -29 -23 -15 -32 11 -6 52 21 52 35 0 11 -9 11
-37 -3z"/>
<path d="M1330 2360 c0 -5 5 -10 11 -10 5 0 7 5 4 10 -3 6 -8 10 -11 10 -2 0
-4 -4 -4 -10z"/>
<path d="M1395 2270 c-3 -6 1 -7 9 -4 18 7 21 14 7 14 -6 0 -13 -4 -16 -10z"/>
<path d="M1380 2218 c0 -6 -8 -20 -17 -31 -13 -15 -14 -18 -3 -12 44 24 63 55
35 55 -8 0 -15 -5 -15 -12z"/>
<path d="M1315 2149 c-4 -6 -5 -12 -2 -15 2 -3 7 2 10 11 7 17 1 20 -8 4z"/>
<path d="M1535 1960 c-16 -16 -26 -32 -23 -36 9 -8 68 37 68 53 0 21 -14 15
-45 -17z"/>
<path d="M1610 1945 c-13 -14 -21 -28 -17 -31 10 -10 50 4 77 27 23 18 23 19
3 9 -21 -10 -27 -7 -24 13 2 15 -16 6 -39 -18z"/>
<path d="M2510 3119 c-19 -5 -73 -11 -119 -14 -69 -4 -88 -9 -108 -26 -21 -20
-21 -24 -8 -39 18 -19 20 -73 4 -102 -22 -41 -29 -1039 -7 -1065 11 -14 85
-16 128 -4 14 4 40 3 58 -3 46 -14 55 0 58 91 1 43 7 102 13 132 6 30 8 63 5
74 -3 10 -3 33 0 51 l6 33 148 6 c128 5 247 22 308 43 69 25 133 115 184 260
34 97 35 114 16 193 -7 31 -19 82 -25 113 -10 45 -21 65 -53 98 -88 88 -233
146 -388 155 -47 3 -107 7 -135 9 -27 2 -66 0 -85 -5z m269 -32 c19 -7 36 -17
38 -22 3 -11 -167 -99 -175 -91 -2 3 8 21 24 41 39 52 21 62 -49 27 -32 -16
-59 -26 -62 -23 -2 4 11 24 30 44 32 35 37 37 97 36 35 0 78 -5 97 -12z m-239
-7 c0 -5 -10 -14 -22 -21 -19 -10 -19 -12 -5 -21 30 -16 20 -46 -23 -68 -36
-19 -39 -23 -29 -42 9 -17 8 -24 -5 -33 -22 -17 -21 -39 2 -30 32 13 47 10 47
-10 0 -14 -8 -21 -25 -23 -40 -5 -68 -22 -63 -41 2 -11 -8 -21 -37 -33 -22 -9
-40 -22 -40 -28 0 -13 24 -1 94 47 54 37 71 41 80 17 10 -27 7 -31 -25 -38
-27 -5 -29 -7 -16 -21 9 -8 23 -12 31 -9 14 5 16 -7 16 -100 0 -115 -5 -127
-75 -163 -16 -9 -24 -18 -18 -20 7 -3 23 3 35 11 24 17 58 21 58 8 0 -5 -10
-14 -22 -20 l-23 -11 23 0 c14 -1 21 -5 16 -12 -3 -6 5 -5 22 3 34 15 117 17
124 3 3 -5 -19 -18 -49 -28 -32 -10 -73 -35 -101 -60 -60 -54 -166 -112 -176
-96 -4 6 12 28 37 51 48 43 35 41 -22 -4 -51 -39 -59 -36 -59 20 0 56 15 74
75 95 43 15 58 37 26 37 -13 0 -21 6 -21 17 0 14 -2 14 -20 -2 -11 -10 -20
-26 -20 -37 0 -10 -7 -18 -15 -18 -13 0 -15 11 -13 57 l3 57 41 11 c35 8 40
12 28 23 -11 10 -20 10 -49 -2 -40 -17 -54 -7 -25 19 11 10 17 21 15 26 -3 4
7 17 22 29 65 49 76 60 38 35 -50 -32 -65 -39 -70 -33 -5 5 -8 69 -6 161 2 60
4 69 24 77 12 5 18 9 12 10 -5 0 -3 5 5 10 12 8 10 10 -9 10 -16 0 -21 4 -18
15 4 8 9 48 13 90 5 59 10 75 23 75 9 0 26 3 39 6 16 5 22 2 22 -10 0 -9 -8
-16 -19 -16 -10 0 -21 -7 -25 -15 -3 -8 -1 -15 4 -15 6 0 10 4 10 9 0 5 9 11
21 14 11 3 23 15 26 26 5 18 13 21 59 21 30 0 54 -4 54 -10z m422 -51 c40 -21
47 -33 23 -43 -8 -3 -15 -10 -15 -16 0 -13 37 -13 45 0 3 6 19 10 35 10 54 0
112 -101 92 -160 -8 -22 -7 -30 3 -34 7 -2 19 -30 26 -60 10 -48 10 -64 -6
-122 -11 -40 -24 -68 -34 -71 -9 -3 -25 -9 -36 -13 -11 -5 -48 -12 -82 -15
-72 -8 -85 6 -25 26 40 13 152 67 152 73 0 11 -91 -10 -139 -31 -56 -24 -81
-22 -46 3 53 39 61 46 33 30 -36 -21 -40 -20 -36 5 3 24 86 61 128 57 27 -2
50 8 50 23 0 14 -31 10 -76 -10 -23 -10 -54 -22 -70 -25 -26 -6 -31 -3 -41 24
-6 17 -7 32 -2 36 5 3 9 13 9 23 0 10 11 24 25 31 14 7 25 18 25 23 0 5 -16
-3 -35 -18 -43 -32 -62 -28 -59 14 1 21 -2 31 -12 31 -12 0 -12 4 -4 20 9 16
8 20 -7 20 -13 0 -8 8 17 31 19 17 26 25 15 18 -11 -7 -30 -22 -42 -32 -24
-21 -43 -16 -43 14 0 10 -5 19 -11 19 -5 0 -7 5 -3 11 3 6 -8 4 -24 -5 -34
-17 -53 -6 -32 19 10 12 9 15 -5 15 -25 0 -16 12 45 64 49 42 59 47 90 41 19
-4 51 -15 72 -26z m-309 -1 c-4 -7 -23 -34 -41 -59 -31 -42 -36 -46 -65 -40
-49 10 -39 32 33 73 68 40 86 46 73 26z m87 -49 c-15 -28 -69 -59 -102 -59
-43 0 -34 13 35 47 74 38 81 39 67 12z m7 -101 c67 -25 103 -54 103 -83 0 -13
11 -40 24 -60 29 -43 45 -153 27 -191 -6 -14 -26 -31 -44 -39 -40 -16 -168
-43 -247 -52 l-59 -6 2 149 c0 82 -3 181 -7 221 -10 80 -16 71 59 86 29 7 83
-3 142 -25z m373 -398 c0 -13 -12 -26 -35 -37 -19 -9 -32 -20 -29 -25 3 -5 0
-16 -8 -25 -9 -12 -9 -15 0 -9 22 13 13 -10 -15 -36 -31 -29 -56 -38 -62 -23
-3 6 10 20 29 33 18 12 29 22 24 22 -15 0 -60 -33 -81 -58 -15 -19 -34 -25
-98 -33 -44 -5 -94 -13 -110 -18 -38 -10 -79 4 -72 23 4 9 -1 16 -13 18 -17 3
-13 11 28 66 40 53 54 64 97 76 92 26 105 28 105 12 0 -13 4 -13 35 0 19 7 44
14 56 14 19 0 17 -4 -16 -30 -21 -16 -35 -30 -32 -30 3 0 41 18 84 40 89 45
113 49 113 20z m-485 -127 c-4 -10 -11 -30 -17 -44 -7 -21 -17 -28 -51 -32
-23 -3 -52 -9 -64 -13 -17 -5 -23 -2 -23 10 0 9 3 16 8 16 4 0 31 18 61 40 57
43 99 54 86 23z m-195 -132 c0 -5 -10 -16 -22 -25 -13 -9 -1 -5 25 10 36 20
51 24 59 16 14 -14 16 -13 -57 -50 -45 -23 -54 -31 -36 -32 24 0 24 0 5 -21
-16 -19 -13 -18 23 5 51 31 63 32 63 6 0 -15 -12 -26 -41 -39 -38 -17 -39 -19
-17 -26 13 -4 29 -6 36 -6 7 1 12 -10 12 -28 0 -35 -17 -47 -79 -57 -23 -4
-44 -11 -47 -15 -3 -5 -12 -9 -20 -9 -8 0 -13 4 -10 9 3 4 -5 6 -18 4 -21 -4
-22 -2 -18 28 3 24 12 34 33 43 17 6 29 18 29 28 0 10 5 18 12 18 6 0 9 3 5 6
-3 4 -18 -3 -33 -15 -34 -27 -44 -27 -44 2 0 18 10 28 40 42 22 10 40 24 40
32 0 16 -8 16 -40 -2 -37 -21 -52 -19 -48 8 2 12 8 22 13 23 6 0 35 13 65 27
60 29 70 32 70 18z m45 -271 c12 -19 -15 -50 -43 -50 -15 0 -39 -7 -54 -14
-24 -13 -32 -13 -58 0 -16 9 -30 19 -30 23 0 11 117 49 152 50 15 1 30 -3 33
-9z"/>
<path d="M2450 3009 l-25 -20 33 16 c17 8 32 18 32 20 0 10 -16 4 -40 -16z"/>
<path d="M2434 2694 c-18 -14 -18 -14 6 -3 31 14 36 19 24 19 -6 0 -19 -7 -30
-16z"/>
<path d="M2455 2629 c-4 -6 -5 -12 -2 -15 7 -7 37 7 37 17 0 13 -27 11 -35 -2z"/>
<path d="M2400 2580 c-9 -6 -10 -10 -3 -10 6 0 15 5 18 10 8 12 4 12 -15 0z"/>
<path d="M2470 2562 c-19 -9 -22 -52 -3 -45 13 5 33 34 33 47 0 7 -11 7 -30
-2z"/>
<path d="M2390 2480 c-9 -6 -10 -10 -3 -10 6 0 15 5 18 10 8 12 4 12 -15 0z"/>
<path d="M2850 2994 c-23 -14 -23 -14 -2 -9 13 4 22 2 22 -5 0 -6 5 -8 10 -5
12 7 14 35 3 35 -5 -1 -19 -7 -33 -16z"/>
<path d="M2795 2970 c-3 -6 1 -7 9 -4 18 7 21 14 7 14 -6 0 -13 -4 -16 -10z"/>
<path d="M2900 2950 c-45 -24 -28 -24 25 0 22 10 33 19 25 19 -8 0 -31 -8 -50
-19z"/>
<path d="M3002 2921 c-10 -6 -10 -10 1 -20 11 -9 19 -7 38 9 l24 19 -25 1
c-14 0 -31 -4 -38 -9z"/>
<path d="M2828 2424 c-38 -20 -36 -28 2 -9 17 9 30 18 30 20 0 7 -1 6 -32 -11z"/>
<path d="M2861 2395 c-18 -19 -36 -33 -41 -30 -4 3 -13 -2 -19 -9 -22 -26 8
-29 57 -4 38 18 47 28 49 51 2 36 -6 34 -46 -8z"/>
<path d="M2945 2400 c-3 -5 3 -10 15 -10 12 0 18 5 15 10 -3 6 -10 10 -15 10
-5 0 -12 -4 -15 -10z"/>
<path d="M2743 2370 c-18 -11 -33 -22 -33 -25 0 -8 58 23 65 35 9 14 5 13 -32
-10z"/>
<path d="M2420 2029 c-22 -18 -22 -19 -3 -10 12 6 25 16 28 21 9 15 3 12 -25
-11z"/>
<path d="M3630 3118 c-19 -4 -73 -10 -120 -13 -67 -4 -88 -9 -104 -25 -17 -17
-19 -23 -8 -40 14 -24 16 -96 2 -105 -5 -3 -10 -16 -10 -28 0 -12 -2 -246 -6
-520 -5 -385 -3 -501 6 -512 13 -16 84 -19 130 -6 14 4 40 3 58 -3 23 -7 36
-6 44 2 10 10 23 129 32 294 2 36 6 70 10 76 3 5 70 12 148 15 140 5 256 23
321 50 66 28 117 107 172 264 31 89 32 95 20 150 -7 32 -20 92 -29 133 -14 62
-23 81 -54 111 -80 77 -199 131 -328 148 -113 15 -243 19 -284 9z m269 -31
c19 -7 36 -17 38 -22 2 -6 -35 -29 -82 -53 -47 -23 -85 -39 -85 -34 0 4 9 22
21 41 11 18 17 37 12 42 -4 4 -34 -5 -65 -20 -64 -31 -73 -22 -29 27 28 30 34
32 93 31 35 0 78 -5 97 -12z m-251 -22 c-25 -22 -26 -24 -9 -30 30 -9 14 -43
-30 -65 -26 -14 -37 -25 -33 -35 4 -8 11 -15 18 -15 6 -1 1 -9 -11 -19 -28
-23 -31 -46 -5 -36 46 19 54 19 50 -6 -2 -15 -11 -25 -23 -27 -44 -7 -73 -24
-69 -40 3 -12 -8 -23 -36 -36 -22 -11 -40 -23 -40 -28 0 -14 8 -10 78 37 73
49 87 53 96 29 10 -26 7 -32 -19 -38 -16 -4 -22 -11 -18 -21 3 -10 12 -13 24
-10 16 5 19 1 20 -32 1 -21 3 -60 4 -88 2 -27 -1 -62 -7 -77 -17 -45 -148
-114 -148 -78 0 5 14 16 30 25 17 9 30 18 30 21 0 17 -84 -45 -92 -68 -6 -16
-16 -28 -24 -28 -12 0 -14 12 -12 57 l3 57 41 11 c34 8 39 12 29 22 -11 10
-21 9 -49 -2 -30 -13 -36 -13 -36 -1 0 7 7 19 15 26 9 7 13 15 10 18 -3 3 5
17 17 31 13 14 15 20 6 12 -31 -23 -38 -3 -37 110 1 103 2 111 23 119 11 5 17
9 11 10 -5 0 -3 5 5 10 12 8 11 10 -7 10 -19 0 -21 4 -16 38 3 20 9 41 13 45
4 5 6 26 3 48 -6 41 -5 41 50 53 20 5 27 3 27 -9 0 -8 -9 -15 -20 -15 -11 0
-20 -7 -20 -15 0 -12 5 -11 30 3 16 9 30 25 30 35 0 14 10 17 63 17 l62 -1
-27 -24z m434 -36 c43 -22 45 -27 21 -45 -29 -20 -7 -28 38 -14 48 16 63 10
97 -40 30 -45 37 -78 25 -111 -8 -21 -8 -29 3 -33 20 -8 37 -85 30 -137 -15
-112 -36 -130 -160 -144 -87 -9 -81 2 24 46 95 39 122 61 63 52 -21 -3 -65
-16 -98 -29 -32 -13 -61 -22 -63 -20 -2 2 7 14 20 26 18 17 19 20 5 14 -15 -6
-18 -3 -15 16 2 18 15 27 58 42 30 10 65 17 77 15 13 -2 29 3 39 14 16 18 16
19 -7 19 -13 0 -43 -9 -65 -19 -50 -23 -105 -36 -102 -24 1 4 -3 18 -10 29 -9
18 -9 24 3 34 7 6 12 17 9 24 -3 7 7 18 21 26 14 7 25 18 25 23 0 5 -16 -3
-35 -18 -37 -28 -79 -29 -56 -1 8 10 9 16 1 21 -6 3 -8 11 -5 16 4 5 1 9 -4 9
-17 0 -13 21 6 35 15 11 14 12 -12 7 l-30 -5 30 27 c17 15 23 24 15 20 -8 -4
-25 -16 -37 -27 -24 -21 -43 -16 -43 14 0 10 -5 19 -11 19 -5 0 -8 4 -4 10 3
5 -7 3 -22 -5 -32 -17 -53 -4 -33 20 10 12 10 15 -4 15 -26 0 -19 17 17 39 18
11 43 32 57 46 21 22 30 25 59 20 19 -4 52 -15 73 -26z m-302 6 c0 -3 -16 -25
-35 -51 -19 -25 -35 -50 -35 -55 0 -8 -28 -5 -67 6 -24 8 0 36 61 70 59 34 76
40 76 30z m56 -81 c-28 -24 -49 -34 -73 -34 -18 0 -33 4 -33 9 0 10 133 71
140 64 3 -3 -13 -20 -34 -39z m31 -76 c69 -25 103 -53 103 -85 0 -14 11 -38
24 -54 18 -21 26 -46 32 -95 9 -84 -2 -114 -46 -136 -39 -19 -161 -45 -250
-55 l-59 -6 2 149 c0 82 -3 181 -7 221 -8 71 -8 72 15 77 73 16 106 13 186
-16z m371 -400 c-2 -13 -16 -29 -33 -38 -23 -12 -29 -21 -27 -41 4 -32 -29
-75 -63 -81 -36 -7 -32 18 8 42 17 11 28 20 24 20 -18 0 -67 -35 -72 -51 -7
-20 -54 -39 -99 -39 -17 0 -59 -6 -92 -13 -68 -14 -110 -7 -100 18 3 9 0 15
-9 15 -22 0 -19 6 28 70 44 59 67 73 150 89 38 7 47 6 47 -5 0 -12 6 -12 36 1
20 8 45 15 56 15 16 0 14 -5 -14 -31 l-33 -30 74 35 c40 19 76 37 79 40 3 4
14 6 24 6 14 0 19 -6 16 -22z m-598 -16 c0 -5 -10 -14 -22 -20 l-23 -11 23 0
c12 -1 22 -6 22 -11 0 -6 9 -5 23 2 27 16 119 17 124 2 2 -5 -23 -18 -54 -28
-37 -12 -75 -34 -104 -60 -51 -46 -162 -110 -173 -99 -3 4 13 27 36 52 l43 44
-51 -36 c-29 -20 -57 -37 -63 -37 -16 0 -13 82 4 107 8 12 32 27 53 34 20 6
43 17 51 23 20 15 83 45 99 46 6 0 12 -4 12 -8z m115 -109 c-4 -10 -12 -30
-17 -45 -8 -22 -16 -28 -38 -28 -16 0 -41 -5 -56 -10 -54 -21 -45 7 17 54 65
48 107 61 94 29z m-185 -133 c0 -7 7 -7 21 1 15 8 24 8 32 0 13 -13 14 -13
-58 -49 -37 -19 -62 -27 -66 -20 -4 6 -17 4 -37 -6 -17 -9 -36 -16 -42 -16
-17 0 -11 40 8 46 9 4 40 17 67 29 56 26 75 30 75 15z m50 -89 c0 -23 -16 -37
-54 -47 l-30 -7 25 -10 c13 -6 30 -9 37 -8 9 2 12 -8 10 -31 -3 -30 -8 -34
-48 -46 -25 -7 -56 -18 -70 -24 -25 -10 -37 -9 -33 3 1 3 -8 4 -21 2 -20 -4
-22 -2 -18 27 3 24 12 34 38 45 24 10 32 19 28 29 -5 14 -8 14 -27 1 -30 -21
-37 -19 -37 9 0 19 10 28 49 45 27 11 57 21 67 21 16 0 15 -2 -2 -21 -17 -19
-14 -19 21 4 48 31 65 33 65 8z m-10 -189 c0 -25 -20 -42 -50 -42 -14 0 -37
-7 -52 -14 -24 -13 -32 -13 -58 0 -16 9 -30 19 -30 23 0 11 120 49 158 50 24
1 32 -3 32 -17z"/>
<path d="M3570 3009 l-25 -20 33 16 c17 8 32 18 32 20 0 10 -16 4 -40 -16z"/>
<path d="M3535 2684 c-42 -28 -72 -54 -45 -38 47 26 103 64 94 64 -5 0 -27
-12 -49 -26z"/>
<path d="M3575 2629 c-4 -6 -5 -12 -3 -14 7 -7 48 7 48 16 0 13 -37 11 -45 -2z"/>
<path d="M3590 2562 c-8 -4 -15 -17 -16 -30 -1 -20 1 -21 20 -8 12 7 22 21 24
30 4 17 -3 19 -28 8z"/>
<path d="M3970 2994 c-23 -14 -23 -14 -2 -9 13 4 22 2 22 -5 0 -6 5 -8 10 -5
12 7 14 35 3 35 -5 -1 -19 -7 -33 -16z"/>
<path d="M4020 2950 c-45 -24 -28 -24 25 0 22 10 33 19 25 19 -8 0 -31 -8 -50
-19z"/>
<path d="M4124 2919 c-15 -24 15 -32 42 -10 l27 21 -31 0 c-17 0 -34 -5 -38
-11z"/>
<path d="M3948 2424 c-38 -20 -36 -28 2 -9 17 9 30 18 30 20 0 7 -1 6 -32 -11z"/>
<path d="M4000 2405 c-12 -13 -38 -31 -57 -40 -57 -27 -25 -41 35 -15 37 16
51 28 55 46 6 34 -6 38 -33 9z"/>
<path d="M4070 2399 c0 -11 37 -12 43 -1 3 4 -6 8 -19 8 -13 1 -24 -2 -24 -7z"/>
<path d="M3868 2372 c-16 -9 -28 -20 -28 -25 0 -5 14 1 30 13 17 12 30 23 30
26 0 6 -2 5 -32 -14z"/>
<path d="M3534 2194 c-18 -14 -18 -15 4 -4 12 6 22 13 22 15 0 8 -5 6 -26 -11z"/>
<path d="M3540 2029 c-22 -18 -22 -19 -3 -10 12 6 25 16 28 21 9 15 3 12 -25
-11z"/>
<path d="M4745 3120 c-27 -5 -88 -12 -135 -15 -55 -4 -89 -11 -96 -21 -18 -23
-25 -228 -14 -384 7 -88 8 -274 4 -476 -5 -249 -3 -336 6 -353 11 -22 15 -22
83 -15 40 4 81 7 92 6 91 -6 530 -11 565 -6 74 9 75 11 75 124 l0 100 -110 0
c-60 0 -175 -5 -255 -12 -80 -6 -156 -9 -171 -5 -38 10 -53 79 -40 184 6 44 8
89 4 101 -5 21 -5 21 206 19 242 -2 231 -6 231 85 0 85 -16 112 -38 64 -9 -19
-8 -25 4 -30 22 -8 17 -40 -11 -70 l-26 -28 -197 4 -197 3 -3 -32 c-3 -26 -9
-34 -30 -40 l-27 -7 25 -6 c22 -5 25 -12 28 -56 4 -62 -11 -104 -36 -104 -10
0 -26 -6 -36 -13 -18 -13 -18 -14 -1 -21 10 -3 24 -1 32 5 10 9 17 9 25 1 9
-9 7 -17 -9 -34 -11 -13 -23 -31 -26 -41 -6 -17 -5 -17 15 -3 24 17 51 5 42
-19 -5 -11 1 -12 30 -3 44 14 55 5 30 -23 l-19 -22 33 17 c18 9 37 14 43 11 5
-4 15 -3 22 2 7 5 25 15 41 21 24 11 28 10 23 -1 -3 -8 -1 -19 5 -25 8 -8 23
-2 54 19 41 28 84 38 84 21 0 -5 -10 -14 -22 -20 -21 -11 -21 -12 -3 -11 37 2
37 -1 6 -36 -32 -37 -45 -89 -16 -65 8 7 13 16 10 20 -6 10 12 30 71 77 50 42
63 47 142 57 36 5 42 4 42 -12 0 -10 -12 -30 -27 -44 -54 -50 -116 -68 -70
-20 32 33 34 42 9 42 -18 0 -112 -56 -112 -67 0 -3 11 2 25 11 50 33 63 7 19
-38 -31 -30 -15 -35 24 -7 15 10 46 28 70 40 35 18 43 19 48 7 10 -26 -1 -59
-26 -77 -31 -23 -125 -26 -375 -11 -190 11 -215 16 -215 43 0 25 -13 24 -25
-3 -6 -12 -28 -27 -50 -35 -36 -12 -41 -12 -52 3 -13 18 -8 38 7 29 5 -3 11
-1 15 5 3 5 -1 10 -10 10 -27 0 -29 29 -4 56 29 31 33 53 8 47 -20 -6 -28 20
-9 32 6 4 6 15 0 31 -18 47 -12 72 20 89 17 9 30 21 30 27 0 9 -3 9 -12 0 -28
-28 -38 -13 -35 48 2 34 0 63 -5 66 -4 3 -8 17 -7 32 0 21 11 34 46 57 26 17
49 37 51 44 3 8 -12 2 -32 -14 -21 -16 -42 -25 -52 -21 -27 10 -10 29 42 46
31 11 49 23 49 33 0 8 4 19 8 23 4 4 7 12 7 17 0 5 -20 -9 -45 -32 -69 -64
-107 -50 -43 16 17 18 29 35 26 38 -3 3 -13 -1 -22 -10 -15 -15 -17 -15 -22 0
-5 12 3 25 22 40 21 17 26 27 18 35 -8 8 -14 7 -24 -5 -7 -8 -16 -15 -21 -15
-17 0 -9 27 16 54 l24 26 -24 0 c-22 0 -25 4 -25 39 0 29 6 44 21 54 12 9 16
18 10 21 -5 4 -12 2 -16 -4 -15 -24 -25 -6 -25 44 0 37 5 58 16 67 14 12 14
14 -5 21 -25 9 -28 43 -5 56 11 6 13 11 5 16 -6 4 -11 20 -11 36 0 33 30 45
86 34 37 -7 43 -18 18 -32 -12 -7 -13 -11 -4 -17 7 -4 22 5 38 23 26 29 32 31
125 37 53 3 97 4 97 1 0 -2 -7 -12 -16 -21 -11 -10 -13 -20 -7 -26 6 -6 20 2
38 21 23 24 37 30 72 30 24 0 43 -4 43 -9 0 -6 12 -6 29 -1 48 14 157 23 181
15 20 -6 22 -12 17 -56 -4 -33 -2 -49 5 -49 6 0 3 -9 -7 -20 -17 -19 -17 -20
-1 -20 13 0 17 -7 14 -27 -3 -26 -7 -28 -55 -31 -41 -2 -53 0 -53 12 0 8 6 16
13 19 6 2 10 7 6 10 -3 4 -21 -5 -40 -18 -31 -23 -38 -24 -89 -15 -65 13 -67
13 -102 4 -17 -4 -35 -1 -49 9 -20 14 -24 14 -48 -4 -16 -12 -34 -17 -44 -13
-18 7 -23 24 -7 24 6 0 10 7 10 15 0 23 -18 18 -37 -11 -9 -15 -31 -36 -48
-46 l-30 -20 33 4 c47 6 45 -26 -3 -42 -19 -6 -35 -16 -35 -21 0 -5 11 -4 26
1 14 6 30 10 35 10 12 0 12 -106 -1 -130 -7 -13 -7 -21 0 -25 6 -3 7 -17 4
-29 -7 -30 35 -79 57 -65 7 5 26 9 41 9 26 0 27 -2 17 -27 -12 -31 3 -55 23
-35 7 7 8 12 3 12 -5 0 4 14 20 30 16 17 39 30 52 30 27 0 28 -2 7 -42 -18
-34 -12 -33 49 15 35 27 43 29 102 25 48 -3 65 -1 65 9 0 10 -45 13 -197 15
l-198 3 -3 123 c-1 67 1 123 5 123 4 1 42 3 84 4 41 1 84 7 96 13 15 8 45 9
104 2 46 -6 119 -10 163 -10 77 0 78 0 71 23 -4 12 -10 66 -14 119 -4 54 -11
101 -15 105 -11 11 -469 13 -531 3z"/>
<path d="M9550 3120 c-13 -8 -15 -61 -15 -376 0 -295 -3 -368 -13 -372 -21 -7
-65 42 -154 170 -46 66 -107 154 -137 196 -30 42 -85 128 -123 190 -37 62 -83
126 -100 142 -38 34 -74 37 -173 17 l-60 -13 1 -44 c0 -25 1 -72 3 -105 1 -33
0 -292 -2 -576 l-4 -517 114 -7 c63 -4 117 -4 121 0 4 4 9 176 12 382 4 277 8
377 17 380 6 2 16 -5 22 -15 6 -11 49 -66 97 -123 48 -57 119 -153 159 -214
66 -100 137 -200 246 -344 l41 -54 82 7 82 6 22 -30 c13 -17 29 -30 37 -30 8
0 34 -13 58 -30 75 -50 227 -113 227 -93 0 4 -8 27 -17 49 -15 36 -23 43 -53
48 -19 3 -57 20 -85 39 -125 83 -175 119 -175 128 0 15 70 -19 125 -60 56 -42
132 -84 145 -79 4 2 -6 38 -23 81 -24 61 -35 79 -55 84 -13 3 -58 32 -98 65
-41 32 -80 56 -85 52 -8 -5 -9 61 -3 232 11 299 7 727 -8 774 -6 19 -16 38
-22 42 -16 11 -188 9 -206 -2z m195 -31 c7 -5 12 -85 13 -211 3 -226 5 -220
-66 -248 -24 -9 -30 -15 -20 -22 18 -12 -14 -36 -59 -44 -41 -8 -55 3 -29 21
10 8 24 25 32 40 13 25 13 25 -9 10 -31 -22 -37 -19 -37 19 0 26 5 36 20 41
11 4 18 11 15 16 -3 5 -1 18 5 30 11 19 10 20 -9 9 -17 -9 -21 -8 -21 4 0 8 5
18 11 21 5 4 8 12 6 18 -2 7 2 20 10 29 13 15 13 16 -6 11 -17 -4 -21 -1 -21
20 0 15 9 32 22 41 18 13 19 16 5 16 -25 0 -21 10 16 42 l32 28 -39 -15 c-49
-19 -46 -19 -46 10 0 19 4 23 18 19 13 -5 14 -4 3 4 -7 5 -10 15 -7 21 5 7 2
10 -6 9 -8 -2 -14 9 -16 29 -2 23 1 32 15 36 30 8 157 5 168 -4z m-755 -41
c23 -16 49 -53 82 -116 l48 -93 -48 -30 c-26 -16 -58 -32 -70 -36 -15 -3 -20
-8 -12 -13 7 -4 -2 -19 -27 -40 -21 -19 -30 -31 -20 -27 29 11 20 -21 -12 -37
-16 -9 -31 -24 -34 -35 -5 -20 -3 -19 39 5 l44 26 10 -27 c7 -18 7 -39 0 -65
-9 -34 -18 -42 -73 -69 -34 -17 -52 -28 -39 -25 31 8 27 -11 -9 -36 -33 -25
-50 -19 -31 10 9 14 9 19 -1 23 -8 2 -11 22 -10 55 1 29 -2 52 -7 52 -6 0 -10
24 -10 54 0 44 4 56 23 69 12 8 19 18 15 22 -4 4 -14 2 -23 -5 -13 -11 -15 -3
-15 69 0 58 4 81 13 81 9 0 8 3 -2 9 -7 5 -10 14 -7 20 4 6 2 11 -5 11 -7 0
-9 9 -5 28 4 15 8 34 9 43 3 26 100 97 133 99 6 0 26 -10 44 -22z m-143 -23
c-31 -28 -48 -26 -40 5 4 15 14 20 37 20 l31 -1 -28 -24z m317 -239 c32 -43
33 -59 2 -76 -22 -11 -23 -14 -9 -28 14 -14 14 -17 -1 -27 -9 -7 -16 -16 -16
-21 0 -4 15 7 34 25 36 35 61 36 73 5 4 -11 -2 -23 -18 -35 -13 -10 -20 -19
-15 -19 10 0 -17 -44 -47 -77 -19 -22 -22 -22 -39 -6 -21 19 -24 49 -5 56 6 3
3 6 -7 6 -23 1 -56 29 -56 47 0 7 10 16 21 19 16 5 18 9 9 15 -7 5 -21 3 -30
-2 -20 -13 -53 -3 -48 13 2 6 21 21 41 33 29 16 39 18 45 8 6 -9 14 -6 32 13
32 34 20 40 -34 16 -25 -11 -46 -16 -46 -11 0 10 71 79 81 80 4 0 18 -15 33
-34z m596 -178 c0 -12 -12 -35 -27 -51 -19 -20 -22 -28 -11 -24 34 12 27 -12
-20 -64 -26 -29 -42 -50 -35 -46 7 4 16 0 21 -9 8 -14 12 -12 31 15 31 44 43
39 39 -16 -3 -41 -7 -50 -37 -70 -19 -13 -28 -23 -21 -23 7 0 10 -7 5 -17 -5
-15 -4 -16 6 -5 7 6 19 12 26 12 21 0 15 -36 -9 -53 l-23 -15 28 -11 c27 -10
28 -13 22 -58 -4 -27 -14 -55 -23 -63 -23 -21 -27 -44 -7 -36 26 10 30 -23 5
-49 -21 -22 -108 -60 -117 -51 -2 2 11 18 29 36 l33 32 -32 -16 c-29 -14 -53
-42 -53 -61 0 -4 24 -4 53 0 l52 8 -40 -40 c-45 -45 -50 -44 -97 21 -35 49
-35 60 0 72 26 10 26 11 -18 18 -51 9 -72 25 -106 78 -30 47 -30 61 0 78 14 7
22 18 19 26 -8 20 14 42 69 70 26 13 48 31 48 40 0 8 12 26 26 39 21 20 23 25
10 25 -27 0 -30 29 -6 55 22 23 22 24 1 18 -29 -8 -28 25 2 37 17 7 18 9 5 9
-33 2 -18 17 42 46 33 16 68 37 77 47 22 24 33 23 33 -4z m-485 -25 c-4 -10
-8 -28 -9 -39 -2 -22 -1 -22 22 -3 14 10 28 17 32 14 13 -8 9 -59 -7 -85 l-16
-25 26 24 c32 29 61 22 55 -14 -3 -13 0 -26 5 -28 6 -2 -9 -25 -33 -51 l-44
-48 -18 22 c-22 27 -17 37 36 61 40 19 37 20 -13 4 -21 -6 -23 -5 -17 11 6 16
4 16 -16 -3 -17 -16 -27 -19 -40 -12 -24 13 -23 45 3 62 15 11 17 16 7 20 -7
2 -21 -2 -30 -11 -10 -8 -24 -12 -33 -9 -19 8 -20 43 0 51 8 3 15 13 15 23 0
22 62 75 74 63 5 -5 5 -17 1 -27z m-297 -130 c2 -16 -9 -28 -50 -52 -29 -17
-47 -31 -39 -31 7 0 11 -6 7 -15 -8 -21 0 -19 38 10 41 31 46 31 46 1 0 -17
-7 -26 -27 -31 -14 -3 -36 -13 -47 -21 -18 -12 -18 -14 -3 -14 21 0 21 -4 0
-37 -17 -25 -17 -26 2 -15 11 5 29 19 39 31 23 26 36 19 36 -20 0 -26 -6 -33
-42 -49 -50 -23 -83 -26 -72 -7 6 10 4 10 -7 0 -7 -7 -21 -13 -31 -13 -14 0
-18 8 -18 35 0 30 5 37 38 55 20 11 27 18 15 15 -14 -4 -23 -2 -23 5 0 6 -4 9
-9 5 -16 -9 -23 15 -10 31 7 9 14 23 15 31 3 18 3 18 69 72 53 44 68 47 73 14z
m462 -66 c0 -28 4 -33 23 -33 18 1 22 -4 20 -27 -2 -36 -71 -126 -96 -127 -17
0 -19 32 -3 49 11 12 13 21 7 25 -5 4 -12 2 -16 -4 -12 -19 -42 -10 -53 15
-11 23 -9 27 13 37 17 7 24 17 20 26 -7 19 42 72 67 72 14 0 18 -8 18 -33z
m-445 -318 c4 -72 3 -135 -2 -139 -12 -11 -63 -22 -63 -13 0 4 10 17 22 30
l21 23 -29 0 c-37 0 -56 -12 -49 -31 5 -15 -54 -59 -80 -59 -26 0 -16 20 19
37 20 9 32 21 29 28 -2 8 13 23 36 36 44 24 61 49 33 49 -9 -1 -28 -7 -42 -15
-60 -34 -53 -9 10 38 53 39 65 67 29 67 -14 0 -19 -5 -16 -14 7 -17 -65 -86
-88 -86 -20 0 -19 19 2 42 15 17 15 18 -2 18 -14 0 -15 3 -5 15 9 10 9 15 1
15 -19 0 -12 39 10 51 12 6 38 11 58 12 20 0 45 6 56 14 39 26 42 18 50 -118z
m-155 -103 c0 -2 -7 -9 -15 -16 -12 -10 -15 -10 -15 4 0 9 7 16 15 16 8 0 15
-2 15 -4z m910 -14 c0 -13 -12 -23 -41 -31 -23 -7 -43 -10 -45 -8 -7 7 56 57
72 57 8 0 14 -8 14 -18z m-6 -62 c-13 -13 -104 -25 -104 -14 0 13 93 41 105
32 5 -5 5 -12 -1 -18z m-766 -3 c3 -13 -4 -17 -32 -17 -40 0 -48 16 -13 30 28
11 41 8 45 -13z"/>
<path d="M9676 3033 c5 -5 11 -12 15 -16 3 -4 12 -1 19 8 11 13 9 15 -15 15
-16 0 -24 -3 -19 -7z"/>
<path d="M9665 2874 c-19 -15 -22 -21 -9 -15 18 9 52 41 43 41 -2 0 -17 -12
-34 -26z"/>
<path d="M9660 2826 c0 -2 7 -6 15 -10 8 -3 15 -1 15 4 0 6 -7 10 -15 10 -8 0
-15 -2 -15 -4z"/>
<path d="M9718 2735 c-7 -9 -22 -25 -32 -35 -11 -11 -15 -20 -9 -20 14 0 63
46 63 60 0 14 -7 13 -22 -5z"/>
<path d="M8905 2995 c-19 -10 -22 -13 -7 -9 34 8 26 -12 -15 -41 -38 -25 -31
-35 10 -14 27 14 77 60 77 71 0 12 -32 9 -65 -7z"/>
<path d="M8944 2935 c-18 -14 -18 -14 4 -8 27 7 29 -11 4 -29 -11 -7 -43 -34
-72 -60 -42 -39 -48 -48 -31 -48 12 0 21 6 21 14 0 8 34 40 75 71 41 31 75 61
75 66 0 14 -54 10 -76 -6z"/>
<path d="M8999 2850 c-20 -11 -39 -28 -42 -39 -5 -19 -3 -19 44 5 27 13 49 31
49 39 0 19 -7 18 -51 -5z"/>
<path d="M8885 2760 c-3 -6 1 -7 9 -4 18 7 21 14 7 14 -6 0 -13 -4 -16 -10z"/>
<path d="M8930 2585 c-14 -7 -33 -16 -43 -19 -10 -3 -15 -11 -12 -16 4 -6 1
-18 -7 -27 -9 -12 0 -9 30 7 48 27 66 44 60 59 -2 6 -13 4 -28 -4z"/>
<path d="M9610 2315 c-56 -57 -51 -75 9 -31 21 15 27 26 19 29 -9 3 -6 12 11
31 44 47 16 27 -39 -29z"/>
<path d="M9633 2230 c-25 -23 -29 -30 -16 -34 21 -8 52 20 50 45 -1 10 -1 19
-2 19 0 0 -14 -14 -32 -30z"/>
<path d="M9682 2193 c-14 -12 -18 -24 -13 -36 6 -17 9 -16 34 7 41 38 20 64
-21 29z"/>
<path d="M9475 2160 c-4 -6 3 -10 14 -10 25 0 27 6 6 13 -8 4 -17 2 -20 -3z"/>
<path d="M9529 2117 c-16 -28 -7 -29 35 -3 l38 23 -32 0 c-20 0 -35 -7 -41
-20z"/>
<path d="M8235 3091 c-20 -5 -28 -12 -25 -22 3 -8 6 -111 6 -229 1 -118 6
-260 12 -315 6 -55 10 -236 10 -403 -1 -166 1 -303 3 -305 2 -1 56 0 119 3
l114 5 1 230 c0 127 6 345 14 485 13 234 13 264 -3 370 -10 63 -18 125 -19
138 -3 40 -33 52 -121 51 -45 -1 -94 -4 -111 -8z m89 -35 c14 8 26 10 36 4 13
-8 12 -11 -5 -24 -26 -20 -18 -20 36 -1 23 9 46 12 51 7 5 -5 8 -26 8 -48 -1
-21 -1 -55 0 -75 0 -40 -19 -59 -75 -74 -22 -6 -25 -9 -12 -12 9 -3 15 -9 12
-14 -11 -17 14 -9 27 9 18 25 49 36 60 20 15 -25 8 -65 -14 -81 -19 -13 -20
-16 -5 -16 25 -1 23 -51 -3 -58 -10 -3 -26 -16 -35 -30 l-16 -24 25 16 c14 9
30 14 36 10 14 -9 12 -45 -4 -77 -12 -23 -12 -27 0 -32 19 -7 18 -32 -3 -48
-22 -16 -27 -49 -7 -41 19 7 18 -1 -6 -48 -12 -22 -18 -44 -15 -50 4 -5 1 -18
-7 -27 -12 -15 -11 -16 5 -3 16 13 20 13 28 0 15 -25 10 -39 -23 -59 l-32 -19
28 -11 c39 -14 30 -40 -19 -56 -22 -6 -32 -12 -22 -13 20 -1 22 -12 5 -31 -7
-8 -1 -5 13 8 14 12 31 22 37 22 17 0 15 -31 -5 -52 -15 -17 -15 -19 2 -31 22
-17 13 -50 -17 -64 l-22 -10 27 -18 c19 -12 27 -26 27 -46 0 -25 -4 -29 -27
-30 -25 0 -26 -1 -8 -9 11 -5 16 -9 11 -9 -6 -1 -1 -7 9 -15 34 -24 12 -44
-59 -51 -35 -4 -69 -4 -75 0 -14 8 -15 135 -1 135 16 0 12 27 -5 34 -22 8 -18
43 8 61 22 17 22 17 0 11 -43 -13 -41 48 3 64 13 5 24 14 24 20 0 13 -17 13
-25 0 -3 -5 -11 -10 -17 -10 -13 0 -1 93 13 98 5 2 2 10 -6 19 -21 21 -19 41
7 49 l21 6 -23 18 c-20 15 -24 28 -28 97 -4 79 -4 79 24 93 16 7 34 12 39 11
6 -1 5 3 -1 9 -9 9 -17 8 -33 -2 -34 -20 -41 3 -41 135 0 109 1 117 19 117 21
0 37 17 27 27 -4 4 -12 1 -18 -5 -23 -23 -28 -11 -28 73 0 81 1 85 23 85 42 0
52 17 13 24 -40 8 -44 16 -19 42 15 15 18 15 27 1 8 -13 13 -13 30 -1z"/>
<path d="M8288 2923 c6 -2 18 -2 25 0 6 3 1 5 -13 5 -14 0 -19 -2 -12 -5z"/>
<path d="M8322 2683 c-31 -31 -34 -38 -19 -41 10 -2 26 -1 35 3 14 5 14 7 2
15 -12 7 -10 13 10 34 37 41 12 30 -28 -11z"/>
<path d="M8322 2493 c-35 -35 -36 -38 -15 -41 12 -2 34 4 50 13 24 14 25 15 6
12 -29 -6 -29 1 -1 30 37 39 -1 26 -40 -14z"/>
<path d="M8310 1910 c-12 -8 -12 -10 5 -9 11 0 29 4 40 9 18 8 18 9 -5 9 -14
0 -32 -4 -40 -9z"/>
<path d="M9986 3091 c-17 -6 -19 -17 -17 -107 1 -66 6 -103 15 -112 9 -10 54
-15 147 -19 103 -3 137 -8 146 -19 17 -22 27 -209 20 -374 -5 -103 -2 -177 8
-255 8 -60 18 -153 21 -206 3 -52 9 -102 14 -109 9 -15 108 -28 216 -29 74 -1
73 -3 65 129 -4 52 -3 156 0 230 8 156 -4 373 -26 475 -8 39 -15 89 -15 112 0
46 11 53 75 51 17 -1 85 2 153 7 l122 8 0 46 c1 25 5 65 9 88 5 27 4 46 -2 52
-7 7 -71 11 -167 11 -85 0 -281 7 -435 15 -315 16 -323 16 -349 6z m108 -40
c3 -5 0 -14 -8 -20 -8 -7 -26 -36 -40 -66 -14 -30 -30 -55 -34 -55 -11 0 -25
126 -17 140 8 12 92 13 99 1z m146 -5 c0 -3 -22 -19 -50 -37 -50 -33 -67 -49
-30 -29 30 16 26 -9 -7 -48 -30 -34 -78 -49 -103 -32 -13 9 -13 12 0 23 8 6
14 22 12 35 -7 46 59 91 136 92 23 0 42 -2 42 -4z m57 -41 c-26 -24 -43 -46
-38 -50 6 -3 7 -13 4 -21 -10 -27 32 1 64 41 16 19 36 35 45 35 11 0 15 5 12
15 -5 12 6 15 67 15 87 0 83 -12 -12 -38 -55 -15 -64 -20 -61 -39 5 -36 -47
-64 -133 -70 -86 -7 -97 5 -37 36 20 11 33 20 29 21 -5 0 -17 -5 -28 -11 -46
-24 -40 1 12 54 47 48 62 57 90 57 l34 -1 -48 -44z m423 26 c0 -13 -149 -95
-157 -87 -4 3 5 19 19 34 14 15 28 35 31 45 5 13 18 17 57 17 27 0 50 -4 50
-9z m90 -12 c-23 -19 -188 -119 -197 -119 -21 0 35 48 135 116 19 13 47 24 61
24 l26 -1 -25 -20z m-220 -4 c0 -8 -4 -15 -9 -15 -5 0 -33 -19 -61 -42 -29
-24 -66 -53 -84 -65 -17 -13 -25 -23 -18 -23 7 0 31 14 54 30 28 21 45 27 52
20 13 -13 -39 -68 -71 -76 -13 -4 -23 -12 -23 -19 0 -14 -58 -45 -84 -45 -25
0 -19 19 9 30 32 12 31 18 -1 30 -22 9 -24 13 -14 25 9 10 9 15 1 15 -23 0
-10 22 22 35 17 7 51 27 74 44 89 64 153 88 153 56z m317 -2 c8 -20 -21 -45
-102 -85 -37 -19 -61 -26 -63 -19 -2 7 -10 6 -25 -4 -25 -17 -70 -20 -65 -4 5
15 116 75 124 66 4 -3 1 -14 -7 -24 -8 -9 2 -5 22 10 20 15 39 27 44 27 4 0
16 11 27 25 23 29 36 32 45 8z m3 -83 c0 -30 -1 -30 -55 -30 -30 0 -55 4 -55
8 0 7 83 48 103 51 4 1 7 -12 7 -29z m-360 -111 c12 -45 30 -230 23 -241 -2
-5 -12 -8 -21 -8 -24 -1 -92 -39 -70 -40 11 0 15 -5 12 -14 -9 -24 34 -7 56
21 25 32 28 24 33 -88 2 -48 6 -90 9 -95 2 -5 0 -80 -6 -166 l-9 -157 -37 -15
c-32 -13 -37 -18 -33 -40 6 -28 30 -35 39 -11 9 22 31 18 38 -7 9 -34 7 -68
-3 -68 -34 0 -111 26 -111 37 0 20 -14 16 -38 -12 -25 -28 -35 -31 -50 -12 -7
8 -7 18 -2 27 15 23 12 50 -6 50 -10 0 -14 7 -12 22 2 18 12 24 47 31 32 6 46
5 52 -4 6 -10 13 -9 33 5 56 36 12 45 -68 13 -22 -8 -31 -8 -33 0 -3 7 -11 9
-19 6 -8 -3 -17 2 -20 12 -5 12 3 27 25 47 18 17 30 33 26 36 -3 3 -11 0 -17
-6 -24 -24 -45 -13 -52 26 -15 94 -7 108 88 134 67 18 84 14 46 -11 -43 -28
-95 -79 -88 -86 4 -4 19 -2 35 3 15 6 22 11 16 11 -28 2 -10 23 59 68 108 72
104 94 -10 48 -90 -37 -106 -30 -36 14 82 52 99 80 40 65 -18 -4 -25 -11 -22
-20 3 -8 1 -14 -5 -14 -5 0 -32 -20 -58 -45 -26 -25 -53 -45 -60 -45 -6 0 -11
17 -11 40 0 35 3 40 28 46 41 9 49 12 30 13 -26 1 -22 11 15 44 l32 29 -44
-31 c-25 -17 -48 -31 -51 -31 -4 0 -7 57 -8 128 -1 116 1 129 20 150 l21 22
-21 0 c-12 0 -22 5 -22 12 0 17 31 48 48 48 9 0 12 3 9 7 -8 7 121 92 140 93
7 0 17 -18 23 -41z"/>
<path d="M10489 2799 c-15 -6 -29 -19 -32 -29 -5 -18 -3 -19 23 -5 15 8 30 21
33 30 4 8 5 15 4 14 -1 0 -14 -5 -28 -10z"/>
<path d="M10496 2705 c-3 -9 0 -15 9 -15 8 0 15 7 15 15 0 8 -4 15 -9 15 -5 0
-11 -7 -15 -15z"/>
<path d="M10448 2703 c7 -3 16 -2 19 1 4 3 -2 6 -13 5 -11 0 -14 -3 -6 -6z"/>
<path d="M10463 2615 c-44 -20 -52 -21 -55 -8 -2 11 -9 8 -28 -12 l-25 -28 39
7 c33 6 38 5 33 -8 -9 -22 5 -20 48 5 36 22 61 54 48 62 -5 3 -31 -6 -60 -18z"/>
<path d="M10488 2238 c-16 -5 -28 -15 -28 -23 0 -7 -7 -18 -15 -25 -34 -29
-12 -29 30 0 25 17 45 37 45 45 0 8 -1 15 -2 14 -2 0 -15 -5 -30 -11z"/>
<path d="M10457 2151 c-32 -15 -35 -19 -20 -25 16 -7 15 -10 -12 -32 -16 -13
-25 -24 -20 -23 17 1 128 74 133 87 5 17 -36 14 -81 -7z"/>
<path d="M7729 3063 c-13 -15 -12 -15 9 -4 23 12 28 21 13 21 -5 0 -15 -7 -22
-17z"/>
<path d="M5098 3053 c7 -3 16 -2 19 1 4 3 -2 6 -13 5 -11 0 -14 -3 -6 -6z"/>
<path d="M4934 3018 l-19 -23 23 19 c12 11 22 21 22 23 0 8 -8 2 -26 -19z"/>
<path d="M6908 3033 c6 -2 18 -2 25 0 6 3 1 5 -13 5 -14 0 -19 -2 -12 -5z"/>
<path d="M5012 3001 c-11 -7 -11 -9 1 -14 9 -3 21 1 27 9 10 11 10 14 -1 14
-8 0 -20 -4 -27 -9z"/>
<path d="M4870 2969 c0 -11 5 -17 10 -14 6 3 10 13 10 21 0 8 -4 14 -10 14 -5
0 -10 -9 -10 -21z"/>
<path d="M7704 2965 c8 -8 19 -15 25 -15 6 0 11 7 11 15 0 9 -10 15 -26 15
-23 0 -24 -2 -10 -15z"/>
<path d="M4630 2915 c-24 -29 -4 -38 25 -12 28 24 28 26 9 27 -12 0 -27 -7
-34 -15z"/>
<path d="M7686 2903 c-17 -5 -54 -33 -43 -33 10 0 77 31 77 35 0 5 -5 5 -34
-2z"/>
<path d="M7700 2830 c0 -13 11 -13 30 0 12 8 11 10 -7 10 -13 0 -23 -4 -23
-10z"/>
<path d="M6836 2819 c-15 -9 -16 -13 -5 -20 20 -13 29 -11 29 5 0 8 6 17 13
19 8 4 7 6 -3 6 -8 0 -23 -4 -34 -10z"/>
<path d="M7605 2781 c-3 -6 -19 -11 -35 -11 -16 0 -31 -4 -34 -9 -4 -5 4 -7
16 -3 14 3 19 2 14 -6 -9 -15 2 -15 43 -1 18 6 30 16 28 22 -5 15 -24 20 -32
8z"/>
<path d="M4581 2766 c-13 -7 -20 -16 -15 -19 5 -3 21 3 34 14 29 21 17 25 -19
5z"/>
<path d="M6876 2745 c4 -8 8 -15 10 -15 2 0 4 7 4 15 0 8 -4 15 -10 15 -5 0
-7 -7 -4 -15z"/>
<path d="M6945 2750 c-16 -4 -24 -8 -17 -9 6 0 12 -8 12 -16 0 -12 4 -13 19
-6 10 6 21 17 25 26 6 16 5 16 -39 5z"/>
<path d="M4688 2729 c-10 -10 -14 -19 -10 -19 5 0 17 9 27 20 10 11 14 20 9
19 -5 0 -17 -9 -26 -20z"/>
<path d="M6935 2680 c-3 -5 -1 -10 4 -10 6 0 11 5 11 10 0 6 -2 10 -4 10 -3 0
-8 -4 -11 -10z"/>
<path d="M6830 2673 c-14 -3 -29 -9 -34 -14 -17 -15 38 -10 60 6 20 15 17 16
-26 8z"/>
<path d="M4695 2660 c4 -6 11 -8 16 -5 14 9 11 15 -7 15 -8 0 -12 -5 -9 -10z"/>
<path d="M7683 2633 c9 -2 23 -2 30 0 6 3 -1 5 -18 5 -16 0 -22 -2 -12 -5z"/>
<path d="M6777 2593 c-12 -11 -8 -23 8 -23 8 0 15 7 15 15 0 16 -12 20 -23 8z"/>
<path d="M4707 2546 c-11 -9 -14 -17 -8 -21 14 -8 53 13 46 26 -8 12 -16 11
-38 -5z"/>
<path d="M6875 2550 c-3 -6 1 -7 9 -4 18 7 21 14 7 14 -6 0 -13 -4 -16 -10z"/>
<path d="M7165 2540 c-22 -24 -15 -35 16 -25 15 5 18 9 9 15 -7 4 -9 13 -6 19
11 18 1 13 -19 -9z"/>
<path d="M5077 2543 c-10 -3 -16 -10 -14 -16 6 -19 23 -18 48 2 22 19 23 20 4
20 -11 -1 -28 -3 -38 -6z"/>
<path d="M7450 2540 c-8 -5 -10 -10 -5 -10 6 0 17 5 25 10 8 5 11 10 5 10 -5
0 -17 -5 -25 -10z"/>
<path d="M7784 2528 l-19 -21 28 18 c28 18 33 25 19 25 -5 0 -17 -10 -28 -22z"/>
<path d="M4930 2475 c-14 -8 -20 -14 -15 -14 6 0 21 6 35 14 14 8 21 14 15 14
-5 0 -21 -6 -35 -14z"/>
<path d="M4985 2458 c-25 -21 -32 -33 -24 -39 19 -11 39 1 39 23 0 12 8 27 18
34 9 7 14 14 10 14 -4 0 -23 -14 -43 -32z"/>
<path d="M5080 2480 c-18 -12 -2 -12 25 0 13 6 15 9 5 9 -8 0 -22 -4 -30 -9z"/>
<path d="M4720 2448 c-47 -32 -44 -32 27 -3 24 9 40 21 37 26 -8 13 -14 11
-64 -23z"/>
<path d="M7316 2471 c-19 -7 -18 -8 4 -14 13 -3 35 0 49 8 l26 14 -30 0 c-16
0 -39 -4 -49 -8z"/>
<path d="M4856 2454 c-4 -9 1 -14 14 -14 23 0 27 15 6 23 -8 3 -17 -1 -20 -9z"/>
<path d="M9836 2395 c-3 -44 -13 -111 -22 -150 -28 -130 -28 -134 -8 -142 11
-3 40 -25 66 -47 26 -23 62 -50 79 -60 38 -23 39 -32 -16 119 -20 55 -47 154
-61 220 -14 66 -26 125 -28 130 -1 6 -6 -26 -10 -70z"/>
<path d="M9890 2425 c0 -61 93 -385 110 -385 8 0 18 54 27 140 3 30 11 62 19
71 20 23 18 26 -28 56 -49 30 -91 74 -113 118 l-15 30 0 -30z"/>
<path d="M4648 2379 c-18 -10 -25 -39 -10 -39 9 0 52 38 52 45 0 8 -24 5 -42
-6z"/>
<path d="M6880 2375 c-14 -8 -20 -14 -14 -15 5 0 19 7 30 15 24 18 16 19 -16
0z"/>
<path d="M7233 2383 c9 -2 23 -2 30 0 6 3 -1 5 -18 5 -16 0 -22 -2 -12 -5z"/>
<path d="M4598 2353 c7 -3 16 -2 19 1 4 3 -2 6 -13 5 -11 0 -14 -3 -6 -6z"/>
<path d="M7277 2322 c-21 -23 -21 -32 -1 -32 10 0 14 6 11 14 -3 7 0 19 6 25
6 6 9 11 6 11 -3 0 -13 -8 -22 -18z"/>
<path d="M6865 2284 l-30 -26 33 22 c17 12 32 23 32 26 0 7 -4 5 -35 -22z"/>
<path d="M4655 2270 c-3 -5 -2 -10 4 -10 5 0 13 5 16 10 3 6 2 10 -4 10 -5 0
-13 -4 -16 -10z"/>
<path d="M4631 2199 l-24 -32 31 19 c34 19 49 44 29 44 -7 0 -24 -14 -36 -31z"/>
<path d="M10056 2218 c-3 -7 -7 -40 -10 -73 -3 -33 -8 -71 -11 -85 -16 -78
-15 -87 10 -150 15 -36 31 -69 35 -74 13 -13 28 58 36 169 3 55 10 110 15 123
9 24 -11 79 -35 94 -17 12 -36 9 -40 -4z"/>
<path d="M6855 2210 c-3 -6 1 -7 9 -4 18 7 21 14 7 14 -6 0 -13 -4 -16 -10z"/>
<path d="M6735 2200 c-8 -13 15 -13 35 0 12 8 11 10 -7 10 -12 0 -25 -4 -28
-10z"/>
<path d="M4577 2153 c-4 -3 -7 -11 -7 -17 0 -6 5 -5 12 2 6 6 9 14 7 17 -3 3
-9 2 -12 -2z"/>
<path d="M6835 2149 c-4 -6 -5 -13 -2 -16 7 -7 27 6 27 18 0 12 -17 12 -25 -2z"/>
<path d="M10155 2120 c-3 -5 -8 -37 -11 -72 -10 -136 -14 -167 -30 -215 -15
-45 -15 -53 -1 -79 l16 -29 16 38 c18 43 41 132 50 192 3 22 12 50 20 62 19
28 19 47 0 83 -15 29 -48 40 -60 20z"/>
<path d="M11523 2100 c-52 -11 -95 -42 -107 -78 -6 -20 -60 -82 -132 -155
-136 -137 -182 -193 -213 -255 l-22 -43 63 7 c70 7 82 14 105 58 27 51 113
135 231 224 183 136 213 173 183 220 -11 18 -69 30 -108 22z"/>
<path d="M11243 2085 c-25 -11 -33 -20 -33 -40 0 -59 -47 -131 -195 -299 -83
-94 -145 -179 -145 -199 0 -8 82 -2 122 9 9 3 28 30 43 60 36 74 124 182 226
279 89 84 129 133 129 158 0 44 -80 62 -147 32z"/>
<path d="M11048 2030 c-39 -24 -48 -36 -48 -58 0 -37 -29 -90 -113 -202 -64
-86 -153 -237 -144 -246 2 -2 23 0 47 4 37 6 45 12 53 37 15 47 69 123 151
212 128 140 191 236 179 271 -9 23 -76 13 -125 -18z"/>
<path d="M11737 2043 c-18 -3 -50 -27 -85 -62 -32 -32 -109 -97 -172 -143
-134 -99 -270 -237 -232 -238 4 0 77 14 162 32 l155 31 73 78 c40 43 113 110
162 149 108 86 120 104 92 133 -21 21 -95 30 -155 20z"/>
<path d="M6705 2030 c-3 -5 -1 -10 4 -10 6 0 11 5 11 10 0 6 -2 10 -4 10 -3 0
-8 -4 -11 -10z"/>
<path d="M11936 2010 c8 -39 -12 -69 -83 -122 -61 -44 -226 -199 -220 -205 5
-4 189 38 307 71 220 62 471 163 545 220 16 12 7 11 -43 -4 -120 -37 -260 -24
-390 36 -40 19 -83 34 -97 34 -22 0 -24 -3 -19 -30z"/>
<path d="M6780 2010 c-14 -11 -20 -20 -15 -20 6 0 21 9 35 20 14 11 21 20 15
20 -5 0 -21 -9 -35 -20z"/>
<path d="M10235 2003 c-4 -10 -18 -67 -31 -126 -12 -59 -32 -123 -44 -142 -14
-23 -19 -42 -14 -59 16 -63 34 -35 83 130 18 57 39 108 51 119 24 22 25 38 4
70 -19 29 -39 32 -49 8z"/>
<path d="M10874 1968 c-48 -32 -49 -34 -49 -83 0 -46 -5 -56 -62 -128 -46 -57
-68 -95 -83 -143 -26 -84 -25 -94 4 -94 19 0 27 10 44 55 24 63 64 127 151
245 76 102 94 135 86 160 -9 28 -36 25 -91 -12z"/>
<path d="M4806 1969 c-41 -32 -34 -54 9 -27 19 13 35 26 35 30 0 17 -20 16
-44 -3z"/>
<path d="M4874 1943 l-29 -28 23 -3 c14 -2 40 8 63 24 46 32 51 40 9 19 -28
-14 -34 -13 -31 8 2 12 -5 8 -35 -20z"/>
<path d="M12440 1902 c-171 -99 -460 -196 -784 -265 -32 -6 -59 -16 -60 -22
-2 -16 121 -71 233 -104 57 -17 112 -38 121 -46 9 -8 25 -15 35 -15 11 0 86
66 174 153 86 85 198 186 249 226 82 65 127 112 105 110 -4 0 -37 -17 -73 -37z"/>
<path d="M10286 1888 c-8 -13 -29 -70 -46 -128 -18 -58 -39 -117 -48 -132 -13
-23 -14 -30 -3 -40 16 -17 24 -3 73 122 21 52 45 100 53 106 15 11 20 50 9 78
-9 22 -21 20 -38 -6z"/>
<path d="M10745 1871 c-3 -15 -27 -52 -53 -82 -26 -30 -55 -65 -63 -79 -25
-40 -59 -138 -59 -170 0 -27 3 -30 30 -30 17 0 29 3 28 8 -1 4 2 30 6 57 10
66 47 140 107 214 51 62 61 94 33 105 -22 9 -22 9 -29 -23z"/>
<path d="M10665 1878 c-11 -6 -37 -26 -57 -46 -30 -28 -36 -40 -32 -62 4 -19
-3 -43 -24 -81 -26 -47 -62 -146 -62 -171 0 -4 9 -8 19 -8 15 0 20 10 26 50
10 69 63 175 124 244 64 74 67 108 6 74z"/>
<path d="M10321 1782 c-5 -10 -22 -50 -36 -88 -14 -38 -37 -88 -51 -112 -14
-24 -23 -47 -19 -50 12 -12 53 47 76 108 12 34 30 66 39 73 21 15 33 49 24 71
-8 21 -21 20 -33 -2z"/>
<path d="M9795 1760 c-9 -15 3 -45 25 -65 21 -19 225 -91 284 -101 27 -4 36
-2 36 9 0 21 -20 33 -65 41 -44 8 -180 73 -222 106 -28 22 -48 26 -58 10z"/>
<path d="M10515 1751 c-48 -20 -85 -94 -85 -168 0 -26 4 -55 10 -63 10 -17 11
-15 30 65 6 28 27 78 45 113 35 63 35 67 0 53z"/>
<path d="M10332 1673 c-5 -10 -15 -35 -22 -57 -7 -21 -28 -56 -47 -76 -21 -24
-30 -41 -23 -45 23 -14 63 44 96 140 16 48 13 72 -4 38z"/>
<path d="M9038 1661 c-43 -9 -70 -38 -63 -64 8 -27 38 -53 108 -93 28 -17 90
-53 136 -80 52 -30 118 -81 170 -132 l86 -83 63 7 c34 3 62 10 62 14 0 18 -96
99 -205 173 -143 97 -230 176 -239 217 -5 29 -12 33 -76 45 -8 1 -27 0 -42 -4z"/>
<path d="M9200 1655 c-6 -8 -9 -23 -5 -34 10 -31 103 -111 233 -199 65 -45
142 -106 170 -136 50 -55 75 -66 116 -50 14 5 14 9 -3 33 -36 49 -86 97 -197
189 -111 91 -144 127 -144 157 0 38 -143 72 -170 40z"/>
<path d="M9416 1647 c-14 -10 -15 -18 -8 -38 11 -27 25 -40 174 -162 52 -42
115 -104 139 -137 31 -43 50 -60 66 -60 29 0 29 10 -1 68 -33 62 -58 89 -139
152 -73 57 -87 75 -87 115 0 21 -8 30 -42 44 -67 29 -83 32 -102 18z"/>
<path d="M10357 1634 c-17 -61 -17 -73 -3 -68 18 7 31 63 18 76 -7 7 -12 4
-15 -8z"/>
<path d="M9840 1633 c0 -17 40 -73 52 -74 7 0 31 0 53 1 22 0 69 -6 105 -14
89 -21 122 -21 118 2 -2 13 -18 19 -66 25 -35 4 -99 21 -144 37 -81 30 -118
37 -118 23z"/>
<path d="M8793 1600 c-44 -10 -63 -27 -63 -57 0 -38 47 -74 156 -118 164 -65
286 -130 340 -179 52 -46 53 -46 123 -46 39 0 71 4 71 9 0 5 -21 30 -46 55
-48 49 -164 127 -310 211 -52 30 -95 63 -108 82 -15 22 -33 35 -63 42 -47 12
-54 12 -100 1z"/>
<path d="M9680 1596 c0 -9 31 -39 69 -66 78 -57 134 -121 171 -198 16 -33 31
-51 43 -52 15 0 17 5 11 23 -12 37 -54 99 -99 147 -27 28 -45 56 -47 74 -2 24
-12 34 -48 53 -65 32 -100 39 -100 19z"/>
<path d="M11365 1578 c-77 -17 -142 -32 -144 -34 -3 -2 9 -18 25 -35 34 -36
171 -103 304 -149 52 -18 112 -45 132 -61 44 -34 48 -35 118 -9 92 34 148 88
136 133 -5 20 -16 27 -71 41 -105 26 -218 71 -279 110 -31 20 -62 36 -69 35
-6 -1 -75 -15 -152 -31z"/>
<path d="M9599 1584 c-12 -15 -8 -21 30 -53 115 -95 163 -147 193 -208 30 -61
46 -73 76 -55 9 7 6 20 -15 60 -40 74 -93 134 -159 177 -31 21 -64 51 -73 66
-18 33 -33 36 -52 13z"/>
<path d="M9919 1524 c-11 -14 -10 -19 10 -35 18 -15 27 -16 43 -8 11 6 60 9
115 7 58 -2 97 1 99 7 2 6 -12 10 -33 9 -21 -1 -69 7 -108 17 -88 23 -109 23
-126 3z"/>
<path d="M11068 1521 c-49 -10 -91 -20 -94 -23 -3 -4 7 -20 23 -36 53 -58 188
-145 330 -214 78 -37 146 -75 151 -83 6 -11 26 -16 69 -16 119 -2 179 57 117
114 -15 14 -75 42 -133 63 -163 57 -269 112 -323 166 -26 27 -48 47 -50 47 -2
-1 -42 -9 -90 -18z"/>
<path d="M10326 1479 c-35 -47 -23 -57 15 -12 14 16 32 63 24 63 -2 0 -19 -23
-39 -51z"/>
<path d="M10284 1483 c-23 -31 -24 -34 -5 -18 22 19 46 55 38 55 -3 0 -17 -17
-33 -37z"/>
<path d="M8570 1489 c-45 -14 -82 -48 -78 -74 2 -11 18 -27 38 -37 155 -74
230 -114 291 -154 l71 -46 101 2 c56 1 116 3 132 5 17 1 48 3 70 4 l40 2 -44
38 c-46 41 -161 101 -287 151 -97 39 -154 68 -179 90 -25 23 -108 33 -155 19z"/>
<path d="M10880 1490 c-21 -3 -36 -11 -38 -21 -6 -31 161 -185 305 -283 23
-15 59 -45 81 -67 64 -65 182 -79 218 -25 20 32 6 59 -38 78 -164 67 -355 183
-438 268 -50 50 -58 55 -90 50z"/>
<path d="M10748 1473 c-29 -3 -38 -9 -38 -23 0 -10 17 -38 38 -62 37 -45 148
-151 182 -175 30 -21 80 -105 80 -133 0 -23 6 -29 41 -39 52 -16 136 -16 154
-1 32 26 15 48 -112 143 -146 108 -238 193 -276 255 -15 23 -28 41 -30 40 -1
-1 -19 -3 -39 -5z"/>
<path d="M9989 1460 c-10 -7 -10 -11 1 -25 9 -11 16 -13 24 -5 5 5 39 10 75
10 38 0 61 4 56 9 -13 12 -140 20 -156 11z"/>
<path d="M10634 1428 c7 -37 59 -119 110 -176 54 -60 96 -133 96 -168 0 -28 5
-34 40 -48 54 -21 67 -20 85 8 29 43 10 73 -132 210 -81 79 -139 143 -150 167
-11 26 -23 39 -36 39 -17 0 -19 -5 -13 -32z"/>
<path d="M8425 1443 c-11 -2 -46 -26 -78 -53 -103 -88 -231 -135 -364 -132
-40 0 -73 0 -73 -2 0 -8 180 -47 280 -62 121 -18 630 -32 630 -18 0 14 -164
108 -253 145 -79 33 -125 74 -113 104 6 17 -2 22 -29 18z"/>
<path d="M10186 1432 c-15 -8 -55 -15 -87 -16 -63 -2 -76 -14 -38 -33 46 -24
126 -8 158 31 20 24 1 35 -33 18z"/>
<path d="M10500 1445 c0 -15 22 -45 39 -54 17 -9 18 -7 16 22 -2 26 -7 33 -29
35 -14 2 -26 0 -26 -3z"/>
<path d="M10387 1433 c-4 -3 11 -17 34 -31 48 -29 61 -23 26 12 -26 26 -47 32
-60 19z"/>
<path d="M10594 1388 c4 -48 36 -119 89 -197 18 -27 31 -58 32 -80 1 -31 5
-37 33 -45 64 -18 75 42 19 103 -67 73 -150 193 -169 246 -5 12 -6 0 -4 -27z"/>
<path d="M10340 1390 c0 -5 8 -10 18 -10 28 0 116 -45 155 -80 26 -22 37 -27
37 -17 0 26 -48 76 -68 70 -10 -2 -40 7 -67 21 -51 27 -75 33 -75 16z"/>
<path d="M9990 1358 c0 -22 17 -42 24 -29 4 6 0 18 -8 27 -12 12 -16 12 -16 2z"/>
<path d="M10320 1340 c0 -14 7 -20 24 -20 39 0 89 -21 143 -61 29 -22 57 -39
63 -39 17 0 11 20 -7 27 -10 4 -36 21 -57 40 -35 29 -129 73 -156 73 -6 0 -10
-9 -10 -20z"/>
<path d="M10205 1332 c-11 -4 -41 -21 -65 -39 -25 -17 -57 -33 -70 -35 -17 -2
-26 -10 -28 -25 -5 -34 31 -29 75 10 21 18 58 47 82 65 44 32 45 36 6 24z"/>
<path d="M10070 1305 c0 -17 2 -18 24 -9 23 9 20 24 -4 24 -11 0 -20 -7 -20
-15z"/>
<path d="M10246 1305 c-16 -9 -60 -40 -97 -70 -42 -34 -77 -55 -93 -55 -19 0
-27 -7 -32 -25 -3 -14 -4 -32 0 -40 12 -33 48 -13 139 79 50 52 98 96 106 98
8 2 12 9 10 16 -3 9 -12 8 -33 -3z"/>
<path d="M10330 1286 c0 -8 19 -21 43 -31 23 -9 71 -38 107 -63 95 -69 121
-84 136 -78 20 8 17 21 -12 56 -20 24 -33 30 -49 26 -16 -4 -36 5 -71 33 -27
21 -71 46 -97 55 -58 19 -57 19 -57 2z"/>
<path d="M10193 1183 c-50 -50 -107 -98 -126 -107 -29 -12 -37 -21 -43 -50 -8
-45 2 -86 20 -86 8 0 36 33 62 73 27 39 79 103 117 141 55 56 67 74 64 95 -3
24 -9 20 -94 -66z"/>
<path d="M10330 1228 c0 -21 13 -34 50 -53 19 -10 62 -41 95 -69 88 -76 156
-126 172 -126 23 0 27 31 8 66 -11 20 -26 34 -37 34 -25 0 -48 13 -122 67 -54
40 -146 93 -161 93 -3 0 -5 -6 -5 -12z"/>
<path d="M9959 1223 c-13 -3 -16 -19 -15 -96 1 -77 -4 -106 -28 -176 -32 -93
-26 -112 25 -85 39 19 49 41 37 76 -6 16 -8 52 -5 81 2 28 0 63 -5 78 -6 18
-5 39 5 67 15 44 11 60 -14 55z"/>
<path d="M7910 1206 c0 -11 76 -53 170 -95 95 -43 203 -103 335 -186 39 -25
85 -50 104 -56 32 -11 35 -10 57 19 13 16 52 44 86 62 86 44 228 150 228 169
0 3 -98 6 -217 5 -326 -2 -543 22 -745 82 -10 3 -18 3 -18 0z"/>
<path d="M9813 1149 c-7 -29 -38 -93 -69 -143 -32 -50 -72 -115 -91 -145 -69
-113 -23 -197 69 -123 31 24 33 30 24 55 -12 32 2 75 69 227 21 46 40 106 43
132 4 42 2 48 -14 48 -15 0 -22 -12 -31 -51z"/>
<path d="M9709 1183 c-9 -2 -22 -23 -28 -46 -22 -75 -102 -194 -237 -353 -58
-69 -71 -98 -54 -119 17 -20 83 -10 143 22 51 28 51 28 51 79 1 43 9 63 49
127 26 43 67 110 92 150 25 40 48 90 52 110 5 36 5 37 -23 36 -16 -1 -36 -3
-45 -6z"/>
<path d="M9891 1134 c-6 -32 -33 -108 -61 -170 -68 -153 -65 -208 8 -170 28
14 30 19 25 55 -4 27 3 63 21 119 25 73 39 202 24 217 -3 3 -10 -20 -17 -51z"/>
<path d="M9594 1173 c-26 -3 -35 -12 -50 -46 -40 -88 -182 -243 -327 -356 -77
-61 -93 -94 -57 -123 32 -26 64 -23 130 13 39 20 60 39 64 54 3 13 45 70 92
127 156 187 245 344 191 336 -7 0 -26 -3 -43 -5z"/>
<path d="M10250 1148 c-18 -18 -58 -67 -88 -108 -31 -41 -67 -87 -80 -102 -29
-32 -42 -83 -29 -121 16 -49 39 -27 99 95 37 75 76 136 109 172 38 42 49 60
44 76 -9 27 -16 25 -55 -12z"/>
<path d="M9485 1164 c-11 -2 -54 -6 -95 -9 l-75 -7 -18 -38 c-27 -57 -116
-140 -255 -237 -132 -92 -152 -112 -152 -155 0 -34 28 -51 87 -50 73 2 121 21
142 58 11 18 39 45 62 60 59 37 258 237 302 304 35 52 46 82 30 79 -5 -1 -17
-3 -28 -5z"/>
<path d="M10345 1128 c10 -44 8 -42 68 -76 28 -17 96 -71 150 -121 53 -50 101
-91 107 -91 17 0 28 35 21 70 -5 28 -13 35 -40 43 -19 4 -45 16 -60 24 -24 15
-139 109 -151 123 -10 12 -85 60 -93 60 -5 0 -5 -15 -2 -32z"/>
<path d="M9089 1137 l-143 -8 -52 -54 c-58 -59 -118 -102 -213 -155 -77 -42
-90 -58 -73 -95 16 -35 82 -63 169 -71 l70 -7 19 33 c11 18 57 58 109 92 156
105 253 188 281 240 18 35 18 37 -5 35 -11 -1 -84 -6 -162 -10z"/>
<path d="M10286 1077 c-37 -44 -90 -133 -127 -213 -21 -45 -43 -85 -49 -89
-18 -11 -12 -91 9 -116 16 -20 23 -22 38 -13 18 11 27 31 84 182 18 49 44 96
63 117 32 34 33 36 23 87 -12 67 -18 72 -41 45z"/>
<path d="M10370 1010 c0 -17 8 -37 19 -46 52 -43 142 -137 194 -202 32 -40 64
-76 73 -79 50 -19 58 85 9 122 -15 11 -64 54 -109 96 -81 76 -161 139 -178
139 -4 0 -8 -13 -8 -30z"/>
<path d="M10327 925 c-25 -25 -45 -67 -79 -164 -16 -47 -38 -99 -49 -114 -18
-25 -19 -32 -8 -65 14 -44 56 -92 80 -92 13 0 21 13 29 43 22 83 33 113 60
163 l28 51 -19 89 c-11 49 -21 93 -22 98 -2 5 -11 1 -20 -9z"/>
<path d="M10391 898 c0 -13 10 -57 22 -99 21 -74 26 -81 123 -183 94 -98 103
-105 118 -91 29 30 14 113 -26 143 -10 7 -44 46 -75 85 -67 86 -122 145 -145
158 -15 8 -18 6 -17 -13z"/>
<path d="M10378 675 c-8 -16 -30 -74 -47 -129 -36 -113 -41 -97 63 -196 38
-36 98 -100 133 -143 36 -43 67 -76 69 -74 2 2 -13 34 -33 71 -34 66 -76 167
-93 231 -5 17 -20 68 -33 115 -14 47 -29 101 -34 120 l-9 35 -16 -30z"/>
<path d="M10456 607 c29 -122 97 -317 142 -402 l20 -40 -5 75 c-4 61 -1 86 17
135 12 33 24 72 27 88 5 23 2 27 -19 27 -18 0 -42 20 -89 73 -35 41 -74 81
-86 90 l-21 17 14 -63z"/>
</g>
</svg>
